<svg width="24" height="24" viewBox="0 0 24 24" fill="none" xmlns="http://www.w3.org/2000/svg">
<g id="cib:viber" clip-path="url(#clip0_618_2300)">
<path id="Vector" d="M11.2526 0.43217C9.37859 0.45459 5.34951 0.759786 3.09596 2.80865C1.41967 4.45469 0.834393 6.8883 0.765795 9.8976C0.708872 12.896 0.640274 18.527 6.11723 20.0602V22.3955C6.11723 22.3955 6.08293 23.3299 6.70616 23.5215C7.47388 23.7623 7.91101 23.0435 8.64079 22.2711L10.0018 20.7458C13.7492 21.0546 16.6194 20.343 16.95 20.2374C17.7104 19.9966 21.9935 19.4542 22.6933 13.8225C23.4114 8.00639 22.3438 4.34187 20.4164 2.68426H20.4047C19.8231 2.15342 17.4857 0.465438 12.2634 0.446634C12.2634 0.446634 11.8759 0.420599 11.2526 0.431447V0.43217ZM11.3169 2.06736C11.8489 2.06374 12.1722 2.08616 12.1722 2.08616C16.5924 2.09773 18.7022 3.41615 19.1999 3.86021C20.8229 5.23865 21.6592 8.5423 21.0469 13.398C20.4653 18.1061 16.9916 18.404 16.3487 18.6073C16.075 18.6941 13.5471 19.3117 10.3623 19.1085C10.3623 19.1085 7.99056 21.9449 7.24911 22.6754C7.13161 22.8034 6.99442 22.841 6.90684 22.8222C6.78132 22.7918 6.74338 22.6377 6.75067 22.4266L6.7733 18.5509C2.12828 17.278 2.40195 12.4751 2.45157 9.9663C2.5085 7.45747 2.98358 5.40499 4.39788 4.01497C6.30186 2.30891 9.72304 2.07893 11.3154 2.06736H11.3169ZM11.6672 4.57546C11.6289 4.57508 11.591 4.5822 11.5556 4.59642C11.5201 4.61063 11.4879 4.63165 11.4607 4.65828C11.4335 4.6849 11.4118 4.71659 11.3971 4.75153C11.3823 4.78647 11.3746 4.82397 11.3745 4.86186C11.3745 5.02386 11.5073 5.15187 11.6672 5.15187C12.3907 5.13823 13.1099 5.26669 13.7831 5.52984C14.4563 5.79298 15.0703 6.18561 15.5897 6.68508C16.6501 7.70554 17.1667 9.07675 17.1864 10.8696C17.1864 11.028 17.3156 11.1596 17.4791 11.1596V11.148C17.5561 11.1482 17.6301 11.1182 17.6849 11.0646C17.7398 11.0109 17.771 10.938 17.7717 10.8616C17.8072 10.0178 17.6691 9.17555 17.3658 8.3862C17.0626 7.59685 16.6006 6.87685 16.0079 6.26996C14.8526 5.15114 13.3887 4.57474 11.6672 4.57474V4.57546ZM7.82052 5.23865C7.61396 5.20874 7.40329 5.24983 7.22357 5.35509H7.20824C6.791 5.59747 6.41513 5.90381 6.0946 6.26272C5.82824 6.56792 5.68374 6.87673 5.64579 7.17397C5.62317 7.35116 5.6385 7.52835 5.69177 7.69758L5.71074 7.70915C6.01068 8.5828 6.40257 9.42317 6.8813 10.2144C7.49798 11.3259 8.25689 12.3539 9.13922 13.2728L9.16549 13.3104L9.20709 13.3408L9.23336 13.3712L9.26401 13.3972C10.1946 14.2742 11.2345 15.0298 12.3583 15.6457C13.6427 16.3385 14.4221 16.6662 14.8898 16.8021V16.8094C15.027 16.8506 15.1518 16.8694 15.2774 16.8694C15.676 16.8404 16.0534 16.68 16.3494 16.4138C16.7099 16.096 17.0156 15.722 17.2543 15.3065V15.2993C17.4784 14.8813 17.4025 14.4857 17.0792 14.2181C16.4317 13.6572 15.7316 13.1591 14.9884 12.7304C14.4907 12.4628 13.9849 12.6248 13.7799 12.896L13.3427 13.4421C13.1187 13.7133 12.7115 13.6757 12.7115 13.6757L12.6998 13.6829C9.6632 12.9141 8.85315 9.86722 8.85315 9.86722C8.85315 9.86722 8.8152 9.45282 9.09617 9.24164L9.6435 8.80482C9.90549 8.59364 10.0879 8.09318 9.80697 7.59922C9.37742 6.86166 8.87585 6.16766 8.30947 5.52722C8.18565 5.37623 8.01194 5.2735 7.81906 5.23721L7.82052 5.23865ZM12.1722 6.09783C11.7847 6.09783 11.7847 6.67785 12.1758 6.67785C12.6577 6.6856 13.1333 6.78737 13.5754 6.97736C14.0176 7.16734 14.4176 7.44182 14.7526 7.78509C15.0583 8.11922 15.2932 8.51075 15.4433 8.93648C15.5935 9.3622 15.6559 9.81347 15.6269 10.2635C15.6282 10.3397 15.6596 10.4123 15.7143 10.4659C15.769 10.5194 15.8427 10.5496 15.9196 10.5499L15.9312 10.5651C16.0087 10.5646 16.0828 10.5338 16.1375 10.4796C16.1923 10.4253 16.2233 10.3519 16.2239 10.2751C16.2501 9.12593 15.8896 8.16188 15.1825 7.38949C14.4717 6.6171 13.4799 6.18389 12.2138 6.09783H12.1722ZM12.6516 7.65708C12.2524 7.64551 12.2371 8.2371 12.6327 8.24867C13.5945 8.29785 14.0615 8.77951 14.1229 9.77031C14.1242 9.84552 14.1552 9.91723 14.2092 9.97008C14.2632 10.0229 14.3359 10.0527 14.4118 10.0531H14.4235C14.4625 10.0514 14.5008 10.0421 14.5362 10.0256C14.5715 10.0091 14.6032 9.98582 14.6293 9.95707C14.6555 9.92832 14.6756 9.8947 14.6885 9.85817C14.7014 9.82163 14.7068 9.78291 14.7045 9.74428C14.6359 8.45262 13.9251 7.72506 12.6633 7.6578H12.6516V7.65708Z" fill="white"/>
</g>
<defs>
<clipPath id="clip0_618_2300">
<rect width="23.3528" height="23.1429" fill="white" transform="translate(0.160156 0.428619)"/>
</clipPath>
</defs>
</svg>
