<svg width="42" height="42" viewBox="0 0 42 42" fill="none" xmlns="http://www.w3.org/2000/svg">
<g id="logos:telegram" clip-path="url(#clip0_618_2302)" filter="url(#filter0_d_618_2302)">
<path id="Vector" d="M21.1633 2C11.1319 2 3 10.0588 3 20C3 29.9412 11.1319 38 21.1633 38C31.1946 38 39.3265 29.9412 39.3265 20C39.3265 10.0588 31.1946 2 21.1633 2Z" fill="#40B3E0"/>
<path id="Vector_2" d="M30.0003 12.3542L26.756 28.5639C26.756 28.5639 26.3024 29.6881 25.0546 29.1485L17.5682 23.4605L14.846 22.1566L10.2635 20.6278C10.2635 20.6278 9.56023 20.3805 9.49211 19.841C9.424 19.3014 10.2862 19.0092 10.2862 19.0092L28.5028 11.9273C28.5028 11.9273 30.0001 11.2754 30.0001 12.3545" fill="white"/>
<path id="Vector_3" d="M16.9927 28.3817C16.9927 28.3817 16.7741 28.3614 16.5017 27.507C16.2297 26.6527 14.8457 22.1564 14.8457 22.1564L25.8484 15.232C25.8484 15.232 26.4837 14.8498 26.461 15.232C26.461 15.232 26.5744 15.2995 26.2339 15.6142C25.8938 15.9291 17.5908 23.3255 17.5908 23.3255" fill="#D2E5F1"/>
<path id="Vector_4" d="M20.4399 25.6412L17.4789 28.3167C17.4789 28.3167 17.2473 28.4908 16.9941 28.3817L17.5612 23.412" fill="#B5CFE4"/>
</g>
<defs>
<filter id="filter0_d_618_2302" x="0.575758" y="0.787879" width="41.1747" height="40.8485" filterUnits="userSpaceOnUse" color-interpolation-filters="sRGB">
<feFlood flood-opacity="0" result="BackgroundImageFix"/>
<feColorMatrix in="SourceAlpha" type="matrix" values="0 0 0 0 0 0 0 0 0 0 0 0 0 0 0 0 0 0 127 0" result="hardAlpha"/>
<feOffset dy="1.21212"/>
<feGaussianBlur stdDeviation="1.21212"/>
<feColorMatrix type="matrix" values="0 0 0 0 0 0 0 0 0 0.0941176 0 0 0 0 0.439216 0 0 0 0.21 0"/>
<feBlend mode="normal" in2="BackgroundImageFix" result="effect1_dropShadow_618_2302"/>
<feBlend mode="normal" in="SourceGraphic" in2="effect1_dropShadow_618_2302" result="shape"/>
</filter>
<clipPath id="clip0_618_2302">
<rect width="36.3265" height="36" fill="white" transform="translate(3 2)"/>
</clipPath>
</defs>
</svg>
