<svg width="48" height="48" viewBox="0 0 48 48" fill="none" xmlns="http://www.w3.org/2000/svg">
<g id="technical-support 1" clip-path="url(#clip0_524_2092)">
<g id="Group">
<g id="Group_2">
<path id="Vector" d="M47.5541 21.3343C47.5486 19.7463 46.2781 18.3811 44.5702 18.3811L44.5425 18.3809C44.4231 18.3789 44.3161 18.2932 44.2821 18.1723C43.8122 16.4967 43.1397 14.8858 42.2803 13.3747C42.2079 13.2473 42.2239 13.0853 42.328 12.9823C42.3286 12.9817 42.3292 12.9811 42.3298 12.9805C42.8791 12.4386 43.1823 11.7065 43.1836 10.9193C43.1848 10.1228 42.8642 9.34706 42.3039 8.79066L38.6501 5.16225C38.6501 5.16216 38.6501 5.16216 38.6501 5.16216C37.498 4.01822 35.6073 3.98578 34.4598 5.16581C34.4432 5.18306 34.4262 5.19966 34.4099 5.21494C34.333 5.28713 34.2052 5.29584 34.0993 5.23641C32.5739 4.37925 30.9442 3.711 29.2556 3.24984C29.1339 3.21666 29.047 3.10987 29.0443 2.99016L29.0439 2.95791C29.0331 1.32478 27.6986 0 26.0665 0C26.063 0 26.0594 0 26.0559 0L20.8915 0.0180937C20.0983 0.0208125 19.3551 0.333844 18.799 0.899531C18.2429 1.46531 17.9425 2.21381 17.9533 2.99953L17.9532 3.02916C17.9513 3.14869 17.8653 3.25603 17.744 3.29006C16.0584 3.76294 14.4333 4.44281 12.9139 5.31066C12.8086 5.37066 12.681 5.36287 12.6033 5.29106C12.5859 5.27503 12.5688 5.25834 12.5526 5.24213C12.0079 4.68984 11.2761 4.38497 10.4918 4.38366C10.4901 4.38366 10.4885 4.38366 10.4868 4.38366C9.69522 4.38366 8.92122 4.70597 8.36285 5.26819L4.73444 8.92209C3.59903 10.0655 3.56238 11.9686 4.738 13.1122C4.74269 13.1215 4.92353 13.2682 4.80157 13.4857C3.94788 15.0074 3.28197 16.6327 2.82232 18.3164C2.79063 18.4324 2.68347 18.5282 2.53028 18.5282C0.893503 18.5391 -0.433435 19.8795 -0.427716 21.5163L-0.409716 26.6585C-0.403997 28.2926 0.918347 29.6187 2.56347 29.6187H2.57425C2.58363 29.622 2.7986 29.6003 2.86253 29.8283C3.33485 31.5117 4.0136 33.135 4.88013 34.6533C5.00163 34.8663 4.8191 35.0101 4.81432 35.0195C3.63457 36.1827 3.71041 38.0872 4.84047 39.2093L8.49428 42.8376C9.6446 43.9797 11.5352 44.0154 12.6847 42.8337C12.7835 42.7317 12.8964 42.6799 13.0447 42.763C14.5703 43.6204 16.2003 44.2888 17.8893 44.7499C18.0107 44.7831 18.0974 44.8897 18.1001 45.009C18.108 45.0487 18.0212 46.1883 18.9719 47.1358C19.5314 47.6933 20.2735 47.9999 21.0629 47.9999H21.0736L26.2081 47.9819C27.8423 47.9762 29.1804 46.642 29.1909 45.0001L29.1911 44.9713C29.193 44.8513 29.2794 44.7435 29.4016 44.7092C31.0863 44.2365 32.7106 43.557 34.2294 42.6897C34.3355 42.6292 34.4639 42.6371 34.5416 42.709C35.901 43.9678 37.6594 43.8616 38.7815 42.7315L42.4099 39.0776C43.5474 37.9322 43.5798 36.0291 42.4065 34.8877L42.4047 34.886C42.301 34.785 42.2794 34.6275 42.35 34.5013C43.2008 32.982 43.8633 31.3639 44.3223 29.6826C44.3554 29.5613 44.4619 29.4747 44.5833 29.472C44.6148 29.4655 45.788 29.5521 46.7429 28.56C47.2889 27.9927 47.5747 27.2238 47.572 26.4364L47.5541 21.3343ZM44.5493 28.0662C43.8127 28.083 43.1614 28.5954 42.9657 29.3123C42.4847 31.0745 41.8554 32.609 40.9158 34.1755C40.6081 34.6886 40.8065 35.25 41.4259 35.8959C42.0152 36.5104 42 37.4948 41.4121 38.0871L37.7838 41.7409C37.2777 42.2506 36.6462 42.2117 36.6557 42.2098C36.0707 42.2089 35.7761 41.9359 35.497 41.6772C34.9654 41.1851 34.1758 41.1012 33.5322 41.4687C32.1133 42.279 30.5958 42.9137 29.0218 43.3554C28.3049 43.5566 27.7963 44.2125 27.7852 44.9493C27.768 45.9455 27.0156 46.5728 26.2033 46.5758L21.0686 46.5938C20.2608 46.5893 19.5281 46.0007 19.506 44.9774C19.4892 44.2405 18.9767 43.5892 18.2596 43.3934C16.6817 42.9626 15.159 42.3382 13.7336 41.5372C13.1136 41.1888 12.2911 41.2198 11.6762 41.8538C11.0746 42.4722 10.0807 42.4312 9.48513 41.8398L5.83132 38.2115C5.27266 37.6567 5.14732 36.6984 5.84913 35.973C6.36897 35.4363 6.47275 34.607 6.10141 33.9563C5.29188 32.5379 4.65766 31.0212 4.21647 29.4486C4.02522 28.7669 3.40075 28.2125 2.56628 28.2125C1.70622 28.2187 0.99944 27.5203 0.99644 26.6535L0.97844 21.5113C0.975441 20.6475 1.67566 19.9402 2.53582 19.9344C2.53703 19.9344 2.54688 19.9343 2.5481 19.9343C3.30869 19.9303 3.97928 19.4173 4.17878 18.6868C4.60825 17.1139 5.23038 15.5953 6.028 14.1735C6.38697 13.5335 6.31403 12.6826 5.71835 12.1039C5.10813 11.5103 5.14422 10.505 5.73222 9.91284L9.36063 6.25894C9.65679 5.96072 10.0671 5.78981 10.4868 5.78981H10.4894C10.8952 5.79056 11.2724 5.94666 11.5519 6.23016C11.5836 6.26231 11.6162 6.29363 11.6488 6.32381C12.1801 6.81516 12.9686 6.89859 13.6112 6.53175C15.0307 5.721 16.549 5.08584 18.1237 4.644C18.8395 4.44319 19.3476 3.78834 19.3593 3.04912L19.3594 2.98763C19.3537 2.57259 19.5109 2.181 19.8019 1.88494C20.0988 1.58297 20.5131 1.42547 20.9366 1.42397L26.0609 1.40625H26.0863C26.9464 1.40625 27.6339 2.10994 27.6376 2.97009C27.6377 2.98744 27.6379 3.00469 27.6383 3.02203C27.6549 3.75909 28.1676 4.41066 28.8851 4.60659C30.4628 5.03737 31.9853 5.66175 33.4104 6.46256C34.0455 6.81938 34.8652 6.76781 35.4685 6.14578C36.0669 5.5305 37.0598 5.56481 37.6593 6.16012V6.16003L41.3131 9.78853C41.6088 10.0822 41.778 10.4936 41.7774 10.9171C41.7768 11.3259 41.6222 11.7034 41.3422 11.9795C41.2137 12.1063 41.0978 12.2437 40.9951 12.3909C40.6878 12.8315 40.6728 13.4141 40.948 13.8755C41.8447 15.379 42.4519 16.854 42.9282 18.5521C43.1289 19.2675 43.7836 19.7753 44.518 19.787C45.5525 19.8056 46.1452 20.5437 46.1479 21.3393L46.1659 26.4956C46.1687 27.2919 45.578 28.0407 44.5493 28.0662Z" fill="#007F00"/>
<path id="Vector_2" d="M23.573 9.52274C15.5902 9.52274 9.0957 16.0172 9.0957 24.0001C9.0957 31.983 15.5902 38.4774 23.573 38.4774C31.5559 38.4774 38.0504 31.983 38.0504 24.0001C38.0504 16.0172 31.5559 9.52274 23.573 9.52274ZM23.573 37.0712C16.3656 37.0712 10.502 31.2075 10.502 24.0001C10.502 16.7927 16.3656 10.929 23.573 10.929C30.7805 10.929 36.6441 16.7927 36.6441 24.0001C36.6441 31.2075 30.7805 37.0712 23.573 37.0712Z" fill="#007F00"/>
<path id="Vector_3" d="M31.6428 16.7259C31.1269 16.2948 30.4741 16.0909 29.8046 16.1507C29.135 16.2109 28.529 16.528 28.0981 17.044L20.6087 26.0101L18.0458 23.3728C17.5773 22.8907 16.9492 22.62 16.277 22.6104C15.6053 22.6009 14.9692 22.8534 14.4872 23.322C14.0052 23.7905 13.7344 24.4186 13.7249 25.0907C13.7153 25.7628 13.968 26.3984 14.4364 26.8804L18.9455 31.5203C19.4165 32.0048 20.0744 32.2828 20.7501 32.2828C20.7812 32.2828 20.8126 32.2823 20.8449 32.2811C21.556 32.2543 22.2256 31.9256 22.6816 31.3794L31.961 20.2704C32.8505 19.2055 32.7077 17.6154 31.6428 16.7259ZM30.8817 19.3691L21.6021 30.4781C21.4009 30.7192 21.1055 30.8641 20.7929 30.8759C20.4782 30.8869 20.1716 30.7643 19.9538 30.5403L15.4448 25.9004C15.2381 25.6878 15.1266 25.4074 15.1308 25.1109C15.1351 24.8143 15.2545 24.5372 15.4672 24.3306C15.676 24.1276 15.95 24.0164 16.2407 24.0164C16.2461 24.0164 16.2515 24.0164 16.2569 24.0165C16.5534 24.0208 16.8305 24.1402 17.0372 24.3529L20.144 27.5497C20.2829 27.6924 20.4762 27.7674 20.6747 27.7624C20.8738 27.7549 21.0602 27.6633 21.1879 27.5104L29.1774 17.9455C29.3675 17.7179 29.6349 17.5779 29.9303 17.5515C30.2259 17.5252 30.5137 17.6153 30.7413 17.8052C31.2112 18.1975 31.2741 18.8992 30.8817 19.3691Z" fill="#007F00"/>
<path id="Vector_4" d="M33.8057 36.4622C30.9329 38.8241 27.2985 40.1249 23.5723 40.1249C14.6809 40.1249 7.44727 32.8913 7.44727 24C7.44727 20.274 8.74786 16.6399 11.1095 13.7672C11.3561 13.4673 11.3129 13.0241 11.0129 12.7775C10.7129 12.5309 10.2699 12.5742 10.0232 12.8741C7.45523 15.998 6.04102 19.9492 6.04102 24C6.04102 33.6667 13.9055 41.5312 23.5723 41.5312C27.6235 41.5312 31.575 40.1167 34.6989 37.5484C34.9989 37.3018 35.0421 36.8588 34.7955 36.5588C34.5489 36.2588 34.1056 36.2154 33.8057 36.4622Z" fill="#007F00"/>
<path id="Vector_5" d="M23.5723 6.46875C19.5204 6.46875 15.5683 7.88372 12.444 10.4529C12.1441 10.6996 12.1009 11.1427 12.3476 11.4427C12.5941 11.7426 13.0372 11.7857 13.3373 11.5391C16.2105 9.17625 19.8454 7.875 23.5723 7.875C32.4637 7.875 39.6973 15.1087 39.6973 24C39.6973 27.7263 38.3965 31.3607 36.0344 34.2337C35.7879 34.5336 35.8311 34.9767 36.131 35.2233C36.2619 35.3309 36.42 35.3833 36.5772 35.3833C36.7802 35.3833 36.9817 35.2958 37.1207 35.1267C39.6891 32.0027 41.1035 28.0512 41.1035 24C41.1035 14.3333 33.2391 6.46875 23.5723 6.46875Z" fill="#007F00"/>
</g>
</g>
</g>
<defs>
<clipPath id="clip0_524_2092">
<rect width="48" height="48" fill="white" transform="translate(-0.427734)"/>
</clipPath>
</defs>
</svg>
