<svg width="48" height="48" viewBox="0 0 48 48" fill="none" xmlns="http://www.w3.org/2000/svg">
<g id="truck 1" clip-path="url(#clip0_6045_3341)">
<g id="Group">
<g id="Group_2">
<path id="Vector" d="M10.7727 31.6C8.12544 31.6 5.97266 33.7528 5.97266 36.4C5.97266 39.0473 8.12544 41.2 10.7727 41.2C13.4199 41.2 15.5727 39.0473 15.5727 36.4C15.5727 33.7528 13.4198 31.6 10.7727 31.6ZM10.7727 39.6C9.00781 39.6 7.57269 38.1648 7.57269 36.4C7.57269 34.6352 9.00791 33.2001 10.7727 33.2001C12.5374 33.2001 13.9726 34.6353 13.9726 36.4C13.9726 38.1648 12.5374 39.6 10.7727 39.6Z" fill="#007F00"/>
</g>
</g>
<g id="Group_3">
<g id="Group_4">
<path id="Vector_2" d="M37.9719 31.6C35.3247 31.6 33.1719 33.7528 33.1719 36.4C33.1719 39.0473 35.3247 41.2 37.9719 41.2C40.6191 41.2 42.7719 39.0473 42.7719 36.4C42.7719 33.7528 40.6191 31.6 37.9719 31.6ZM37.9719 39.6C36.207 39.6 34.7719 38.1648 34.7719 36.4C34.7719 34.6352 36.2071 33.2001 37.9719 33.2001C39.7367 33.2001 41.1718 34.6353 41.1718 36.4C41.1718 38.1648 39.7367 39.6 37.9719 39.6Z" fill="#007F00"/>
</g>
</g>
<g id="Group_5">
<g id="Group_6">
<path id="Vector_3" d="M47.4454 27.1672L40.2454 15.9672C40.0982 15.7383 39.8446 15.5999 39.5726 15.5999H30.7726C30.3302 15.5999 29.9727 15.9584 29.9727 16.3999V36.3999C29.9727 36.8423 30.3302 37.1999 30.7726 37.1999H33.9726V35.5998H31.5726V17.2H39.1358L45.9726 27.8352V35.6H41.9726V37.1999H46.7726C47.215 37.1999 47.5725 36.8424 47.5725 36.4V27.5999C47.5726 27.4471 47.5287 27.2959 47.4454 27.1672Z" fill="#007F00"/>
</g>
</g>
<g id="Group_7">
<g id="Group_8">
<path id="Vector_4" d="M34.7718 26V20.4001H41.1718V18.8H33.9718C33.5294 18.8 33.1719 19.1584 33.1719 19.6V26.8C33.1719 27.2424 33.5294 27.6 33.9718 27.6H45.9718V25.9999H34.7718V26Z" fill="#007F00"/>
</g>
</g>
<g id="Group_9">
<g id="Group_10">
<path id="Vector_5" d="M30.7723 10.0001H0.372234C-0.0693281 10.0001 -0.427734 10.3585 -0.427734 10.8V36.4001C-0.427734 36.8425 -0.0693281 37.2 0.372234 37.2H6.77227V35.6H1.1723V11.6H29.9723V35.6H14.7722V37.2H30.7723C31.2147 37.2 31.5722 36.8425 31.5722 36.4001V10.8C31.5722 10.3585 31.2147 10.0001 30.7723 10.0001Z" fill="#007F00"/>
</g>
</g>
<g id="Group_11">
<g id="Group_12">
<path id="Vector_6" d="M5.17305 32.4001H0.373047V34.0001H5.17305V32.4001Z" fill="#007F00"/>
</g>
</g>
<g id="Group_13">
<g id="Group_14">
<path id="Vector_7" d="M29.9731 32.4001H16.373V34.0001H29.9731V32.4001Z" fill="#007F00"/>
</g>
</g>
<g id="Group_15">
<g id="Group_16">
<path id="Vector_8" d="M46.7722 32.4001H43.5723V34.0001H46.7722V32.4001Z" fill="#007F00"/>
</g>
</g>
<g id="Group_17">
<g id="Group_18">
<path id="Vector_9" d="M30.7715 13.1999H2.77148V14.8H30.7715V13.1999Z" fill="#007F00"/>
</g>
</g>
<g id="Group_19">
<g id="Group_20">
<path id="Vector_10" d="M11.5727 35.6H9.97266V37.2H11.5727V35.6Z" fill="#007F00"/>
</g>
</g>
<g id="Group_21">
<g id="Group_22">
<path id="Vector_11" d="M38.7719 35.6H37.1719V37.2H38.7719V35.6Z" fill="#007F00"/>
</g>
</g>
<g id="Group_23">
<g id="Group_24">
<path id="Vector_12" d="M13.9715 6.80002H2.77148V8.40005H13.9715V6.80002Z" fill="#007F00"/>
</g>
</g>
<g id="Group_25">
<g id="Group_26">
<path id="Vector_13" d="M1.1723 6.80002H-0.427734V8.40005H1.1723V6.80002Z" fill="#007F00"/>
</g>
</g>
</g>
<defs>
<clipPath id="clip0_6045_3341">
<rect width="48" height="48" fill="white" transform="translate(-0.427734)"/>
</clipPath>
</defs>
</svg>
