<svg width="220" height="220" viewBox="0 0 220 220" fill="none" xmlns="http://www.w3.org/2000/svg">
<g id="family 1" opacity="0.6" clip-path="url(#clip0_479_206)">
<g id="Group">
<path id="Vector" d="M169.736 121.641C170.995 120.382 170.994 118.341 169.735 117.083C168.476 115.826 166.435 115.826 165.177 117.085C164.179 118.084 162.852 118.634 161.438 118.634C160.025 118.634 158.696 118.084 157.699 117.085C156.441 115.826 154.4 115.825 153.141 117.083C151.882 118.341 151.881 120.382 153.139 121.641C155.355 123.858 158.302 125.079 161.438 125.079C164.574 125.079 167.521 123.858 169.736 121.641Z" fill="white"/>
<path id="Vector_2" d="M152.831 100.192C149.589 97.0642 144.314 97.0647 141.071 100.192C139.79 101.427 139.753 103.467 140.989 104.748C142.225 106.03 144.265 106.066 145.546 104.83C146.307 104.096 147.595 104.096 148.357 104.83C148.982 105.434 149.788 105.734 150.594 105.734C151.438 105.734 152.281 105.404 152.913 104.748C154.149 103.468 154.112 101.428 152.831 100.192Z" fill="white"/>
<path id="Vector_3" d="M174.518 104.831C175.284 104.093 176.576 104.093 177.342 104.831C177.967 105.434 178.773 105.734 179.578 105.734C180.423 105.734 181.266 105.404 181.898 104.749C183.134 103.468 183.097 101.428 181.816 100.192C178.571 97.0617 173.289 97.0617 170.044 100.192C168.763 101.428 168.726 103.468 169.962 104.749C171.197 106.03 173.237 106.066 174.518 104.831Z" fill="white"/>
<path id="Vector_4" d="M100.952 166.784C102.732 166.784 104.175 165.342 104.175 163.562V161.511C104.175 159.732 102.732 158.289 100.952 158.289C99.1724 158.289 97.7295 159.732 97.7295 161.511V163.562C97.7295 165.342 99.1724 166.784 100.952 166.784Z" fill="white"/>
<path id="Vector_5" d="M119.209 166.784C120.989 166.784 122.432 165.342 122.432 163.562V161.511C122.432 159.732 120.989 158.289 119.209 158.289C117.429 158.289 115.986 159.732 115.986 161.511V163.562C115.987 165.342 117.429 166.784 119.209 166.784Z" fill="white"/>
<path id="Vector_6" d="M219.908 197.012L216.054 167.192C215.452 162.513 214.022 158.392 211.792 154.947C210.825 153.451 208.831 153.022 207.336 153.988C205.84 154.955 205.411 156.949 206.377 158.444C208.105 161.113 209.175 164.241 209.66 168.018L213.429 197.175H191.506V183.484C191.506 181.704 190.063 180.261 188.283 180.261C186.503 180.261 185.06 181.704 185.06 183.484V197.175H144.079C140.693 191.877 134.677 189.652 129.268 188.122C129.225 188.109 129.182 188.096 129.143 188.087C128.297 187.847 127.463 187.628 126.664 187.413C126.144 187.275 125.633 187.138 125.134 187C124.55 186.841 124.064 186.051 123.682 185.217C131.537 179.816 137.367 170.634 137.367 162.616V155.35C137.367 152.385 137.058 149.571 136.443 146.928C137.496 146.636 140.302 145.888 140.65 145.798L155.349 155.758C156.892 156.901 158.954 158.177 161.438 158.168C163.904 158.198 165.984 156.901 167.526 155.758L182.23 145.794C182.518 145.875 182.814 145.953 183.106 146.03C187.575 147.216 192.198 148.441 196.315 150.323C197.935 151.057 199.847 150.344 200.586 148.729C201.325 147.109 200.612 145.197 198.992 144.457C194.377 142.352 189.487 141.054 184.761 139.8C184.007 139.598 183.254 139.39 182.501 139.184C180.761 138.71 179.706 136.519 178.981 134.664C190.536 127.177 199.24 113.868 199.24 102.305V77.0571C199.24 64.09 189.431 52.3724 174.251 47.2054C167.889 45.0398 161.151 44.3218 155.28 45.1829C149.153 46.0814 144.122 48.6114 140.64 52.5293C133.533 53.6447 123.205 59.149 123.557 81.7703C123.56 81.9869 123.563 102.305 123.563 102.305C123.563 113.863 132.302 127.179 143.897 134.672C143.172 136.529 142.116 138.709 140.375 139.185C140.292 139.208 140.212 139.236 140.133 139.264C139.411 139.457 135.576 140.479 134.36 140.818C133.011 137.931 131.219 135.349 129.002 133.127C124.108 128.211 117.517 125.44 110.448 125.324H110.345C103.273 125.44 96.6817 128.211 91.7833 133.127C89.2094 135.709 87.2157 138.786 85.8149 142.258C83.2411 141.386 77.045 139.693 77.045 139.693C75.279 139.211 74.2262 136.93 73.5044 135.061C82.1024 128.516 88.3195 118.252 88.3195 109.233V100.39C88.3195 98.6966 87.009 97.2915 85.3203 97.1712C80.5766 96.8403 78.7934 95.0142 76.9028 93.0849C74.8403 90.9794 72.0172 88.0962 66.2555 89.5872C64.7516 89.9739 63.4712 90.3134 62.3669 90.6099C59.1485 91.4692 57.5329 91.8989 56.1965 91.8989C54.8559 91.8989 53.2403 91.4692 50.0219 90.6099C48.9176 90.3134 47.6415 89.9739 46.1376 89.5872C40.3626 88.1005 37.5395 90.9837 35.4774 93.0892C33.5868 95.0185 31.8036 96.8403 27.0685 97.1712C25.3798 97.2915 24.0735 98.6966 24.0735 100.39V109.233C24.0735 118.247 30.2868 128.516 38.8844 135.061C38.1669 136.934 37.1141 139.211 35.3438 139.693L34.4415 139.942C27.0594 141.949 19.0935 144.118 13.2841 149.768C11.8919 149.317 7.19111 148.299 6.73134 148.187C6.94619 147.723 7.32861 147.027 7.99462 146.043C15.1747 135.443 18.1047 120.047 18.1047 92.9005C18.1047 78.5838 24.2622 69.0447 30.2344 68.0908C30.3246 68.0779 30.4149 68.065 30.5008 68.0521C31.3731 67.9318 33.4227 67.6482 34.5527 65.4783C38.4844 57.9115 49.7461 53.6838 61.9449 55.192C74.1691 56.7045 88.7054 64.5205 92.83 81.9182C93.5562 85.0162 94.0073 88.4064 94.2866 92.9048C94.2866 100.154 94.4155 108.678 95.3351 117.023C95.5327 118.793 97.1226 120.069 98.8929 119.872C100.663 119.678 101.939 118.084 101.742 116.318C100.852 108.244 100.732 99.9001 100.732 92.806C100.732 92.7416 100.728 92.6728 100.723 92.6083C100.423 87.6841 99.9241 83.933 99.1034 80.44C94.2136 59.8198 77.1124 50.5733 62.7355 48.7944C48.0836 46.9811 34.7762 52.1589 29.2637 61.719C29.2422 61.7233 29.2208 61.7276 29.1993 61.7319C19.0329 63.3561 11.6599 76.4654 11.6599 92.9005C11.6599 118.643 9.05165 132.99 2.6622 142.425C0.883294 145.05 -0.779597 148.114 0.389154 150.954C1.54072 153.756 4.52275 154.345 6.9204 154.813L7.38017 154.907C7.96884 155.023 8.52314 155.144 9.05165 155.273C7.21689 158.504 5.87626 162.491 5.23603 167.471L1.429 197.033C1.25712 198.373 1.17978 200.333 2.54619 201.884C4.06728 203.62 6.40908 203.62 7.29423 203.62H74.3113C74.1137 204.819 74.0062 206.116 74.0062 207.517V213.791C74.0062 216.622 76.3094 218.93 79.1453 218.93H141.634C144.47 218.93 146.773 216.622 146.773 213.791V207.517C146.773 206.116 146.67 204.819 146.468 203.62H214.009C215.521 203.62 217.429 203.422 218.783 201.88C220.153 200.325 220.08 198.357 219.908 197.012ZM163.857 150.46C163.818 150.486 163.78 150.512 163.741 150.542C162.426 151.517 161.786 151.723 161.481 151.723H161.438C161.421 151.723 161.408 151.728 161.395 151.723C161.09 151.723 160.449 151.517 159.135 150.542C159.096 150.512 159.062 150.486 159.019 150.46L146.928 142.266C148.156 140.843 148.994 139.203 149.599 137.762C150.28 138.062 150.964 138.349 151.655 138.606C155.239 139.935 158.349 140.554 161.444 140.554C164.544 140.554 167.652 139.934 171.22 138.606C171.913 138.349 172.598 138.061 173.28 137.759C173.885 139.199 174.722 140.839 175.95 142.264L163.857 150.46ZM142.587 58.7808C143.484 58.7013 144.307 58.2505 144.856 57.5368C148.305 53.0573 154.105 51.2677 160.251 51.2677C164.263 51.2677 168.425 52.0308 172.173 53.307C181.686 56.5447 192.795 64.7079 192.795 77.0571V90.3104H189.726C184.585 90.3104 181.375 87.2991 177.311 83.4869C172.409 78.8889 166.852 73.6768 156.923 73.6768H145.964C137.24 73.6768 135.804 80.6918 134.853 85.3337C133.843 90.2691 133.14 92.3007 130.009 92.7476C130.009 92.7476 130.006 81.9276 130.001 81.6698C129.847 71.7496 131.905 59.7257 142.587 58.7808ZM130.008 102.305V99.2208C138.739 98.4616 140.191 91.3941 141.167 86.6267C142.247 81.3548 142.819 80.1225 145.963 80.1225H156.922C164.302 80.1225 168.479 84.0404 172.901 88.1886C177.182 92.2044 182.035 96.7561 189.726 96.7561H192.795V102.305C192.795 113.716 181.665 127.856 168.974 132.565C166.145 133.618 163.752 134.109 161.444 134.109C159.138 134.109 156.74 133.618 153.897 132.563C141.171 127.841 130.008 113.702 130.008 102.305ZM91.1856 146.383C94.3266 136.591 102.589 131.92 110.396 131.77C117.173 131.899 124.296 135.435 128.108 142.765C129.04 144.561 129.779 146.581 130.26 148.836C130.428 149.606 130.566 150.405 130.669 151.23C129.753 150.774 129.07 150.186 128.413 149.532C128.219 149.343 128.026 149.15 127.828 148.948C126.445 147.539 124.675 145.73 121.619 145.571C120.278 145.49 118.948 145.767 117.659 146.11C116.369 146.454 115.087 146.83 113.794 147.167C112.419 147.525 111.01 147.933 109.578 147.742C107.53 147.469 105.515 146.772 103.523 146.247C101.384 145.683 99.2375 145.218 97.0805 145.975C95.4283 146.555 94.1573 147.724 92.955 148.952C92.0956 149.829 91.3007 150.641 90.1234 151.23C90.2531 150.189 90.5045 148.409 91.1856 146.383ZM89.8707 158.113C93.9485 157.142 96.0711 154.985 97.5621 153.459C98.0442 152.966 98.608 152.217 99.3118 152.03C100.028 151.84 100.917 152.224 101.594 152.403C103.534 152.914 105.464 153.489 107.427 153.901C109.015 154.234 110.606 154.339 112.217 154.106C114.096 153.834 115.933 153.267 117.764 152.781C118.339 152.628 118.914 152.475 119.49 152.325C119.992 152.193 120.519 152.007 121.043 151.989C121.969 151.959 122.637 152.86 123.222 153.459C124.717 154.98 126.84 157.141 130.922 158.112V162.616C130.922 169.95 123.437 179.407 115.213 182.454C113.756 182.995 112.476 183.313 111.225 183.408C109.416 183.554 107.672 183.236 105.562 182.45C105.334 182.364 105.111 182.278 104.883 182.183C96.9425 178.887 89.8703 169.753 89.8703 162.616V158.113H89.8707ZM120.816 191.903L111.978 197.093C111.939 197.119 111.896 197.141 111.857 197.166C111.853 197.171 111.849 197.171 111.845 197.175C110.422 198.094 110.362 198.094 108.914 197.162C108.875 197.141 108.841 197.119 108.802 197.093L103.371 193.905L99.9637 191.907C101.278 190.88 102.159 189.522 102.774 188.276C102.954 188.349 103.135 188.427 103.32 188.495C103.56 188.585 103.801 188.671 104.037 188.753C106.267 189.514 108.325 189.896 110.388 189.896H110.392C112.67 189.896 114.947 189.428 117.456 188.495C117.641 188.427 117.821 188.349 118.006 188.276C118.621 189.522 119.502 190.88 120.816 191.903ZM30.5193 109.233V103.196C35.654 102.122 38.2622 99.4576 40.0798 97.597C41.9232 95.715 42.3658 95.2681 44.5314 95.831C46.0138 96.2091 47.2728 96.5443 48.3642 96.8365C52.0079 97.8076 54.0146 98.3447 56.1974 98.3447C58.3802 98.3447 60.3869 97.8076 64.0306 96.8365C65.1177 96.5443 66.3767 96.2091 67.8634 95.8267C70.0205 95.2724 70.4587 95.715 72.2978 97.597C74.1197 99.4533 76.7322 102.122 81.8751 103.196V109.233C81.8751 118.57 72.7318 130.158 62.3119 134.03C60.0044 134.889 58.0579 135.284 56.1974 135.284C54.324 135.284 52.3775 134.889 50.0701 134.034C39.6544 130.158 30.5193 118.57 30.5193 109.233ZM70.5008 142.769L58.5345 150.873C58.4958 150.899 58.4571 150.929 58.4185 150.955C56.3431 152.502 56.0509 152.502 53.9755 150.955C53.9368 150.929 53.8981 150.899 53.8552 150.873L41.8931 142.769C43.0318 141.441 43.8267 139.929 44.4154 138.563C45.5326 139.138 46.6712 139.645 47.8271 140.075C50.8779 141.205 53.5376 141.729 56.1974 141.729C58.8486 141.729 61.504 141.205 64.5548 140.075C65.715 139.641 66.8537 139.134 67.9751 138.563C68.563 139.925 69.3579 141.441 70.5008 142.769ZM76.7098 197.175H33.222V183.481C33.222 181.702 31.7783 180.259 29.9994 180.259C28.2204 180.259 26.7767 181.702 26.7767 183.481V197.175H7.90998L11.6311 168.292C12.3443 162.762 13.9901 158.822 16.3533 155.887C16.5338 155.724 16.6885 155.539 16.8303 155.333C21.2346 150.306 27.9072 148.402 35.6115 146.301L50.1861 156.171C52.3474 157.769 54.2724 158.564 56.1974 158.564C58.1224 158.564 60.0474 157.769 62.2087 156.171L76.779 146.301C79.3056 146.993 81.729 147.663 84.0364 148.458C83.6368 150.649 83.4263 152.948 83.4263 155.35V162.616C83.4263 170.638 89.2528 179.816 97.0985 185.217C96.7161 186.051 96.2348 186.837 95.6547 187C95.1434 187.138 94.6278 187.275 94.1079 187.417C93.3087 187.628 92.488 187.847 91.6458 188.083C91.5942 188.1 91.5383 188.113 91.4868 188.13C86.0852 189.66 80.0915 191.894 76.7098 197.175ZM140.328 212.484H80.4524V207.517C80.4524 199.667 84.7407 196.939 92.0063 194.709L103.977 201.738C104.574 202.482 105.498 203.118 106.899 203.423C108.115 204.016 109.258 204.312 110.396 204.312C111.398 204.312 112.403 204.08 113.456 203.62C114.053 203.362 114.663 203.027 115.295 202.619L124.568 197.175L128.783 194.7C131.159 195.418 133.221 196.187 134.914 197.175C137.437 198.64 139.151 200.595 139.903 203.62C140.182 204.759 140.328 206.048 140.328 207.518V212.484H140.328Z" fill="white"/>
<path id="Vector_7" d="M50.2798 126.579C51.9968 128.297 54.2776 129.244 56.7036 129.244H56.7156C59.1399 129.241 61.4164 128.292 63.1248 126.573C64.3791 125.311 64.3731 123.27 63.1107 122.015C61.8478 120.761 59.8076 120.767 58.5534 122.03C58.0614 122.525 57.4057 122.798 56.707 122.799C56.7057 122.799 56.7049 122.799 56.7036 122.799C56.0006 122.799 55.3385 122.523 54.8392 122.023C53.581 120.764 51.5409 120.764 50.2819 122.021C49.0229 123.279 49.0216 125.32 50.2798 126.579Z" fill="white"/>
<path id="Vector_8" d="M41.7092 110.285C42.3731 109.642 43.4941 109.642 44.158 110.285C44.784 110.892 45.5923 111.193 46.4001 111.193C47.2419 111.193 48.0828 110.865 48.7148 110.213C49.9536 108.935 49.9214 106.895 48.6435 105.656C45.4952 102.605 40.3724 102.605 37.2241 105.656C35.9458 106.895 35.914 108.935 37.1528 110.213C38.3911 111.491 40.4309 111.524 41.7092 110.285Z" fill="white"/>
<path id="Vector_9" d="M69.2512 110.285C69.9134 109.643 71.0263 109.64 71.6807 110.278C72.3072 110.889 73.1193 111.193 73.9305 111.193C74.7689 111.193 75.6063 110.868 76.238 110.22C77.4806 108.946 77.4548 106.906 76.1808 105.663C73.0419 102.602 67.9214 102.599 64.7662 105.656C63.4878 106.895 63.456 108.935 64.6944 110.213C65.9328 111.491 67.9729 111.524 69.2512 110.285Z" fill="white"/>
<path id="Vector_10" d="M80.0869 35.0745L102.101 56.9125C102.19 57.0014 102.285 57.0844 102.384 57.1622L102.632 57.3568C103.553 58.0838 104.507 58.8358 105.952 58.877C105.982 58.8779 106.013 58.8783 106.044 58.8783C106.076 58.8783 106.107 58.8779 106.139 58.877C107.57 58.8349 108.52 58.0855 109.438 57.3611L109.692 57.1622C109.79 57.0844 109.885 57.001 109.974 56.9125L131.988 35.0745C132.005 35.0577 132.022 35.041 132.038 35.0238C139.752 27.0303 139.753 14.0134 132.037 6.00356C125.422 -0.847382 114.299 -0.51996 106.044 6.71555C97.7746 -0.517382 86.6483 -0.843514 80.0354 6.00613C72.3221 14.0129 72.3229 27.0299 80.0375 35.0234C80.0539 35.041 80.0706 35.0577 80.0869 35.0745ZM84.6747 10.4809C89.4799 5.50383 97.1863 7.41594 101.988 11.7334C102.312 12.0278 102.573 12.2774 102.789 12.4828C103.606 13.2627 104.532 14.1466 106.044 14.1466C107.549 14.1466 108.452 13.2855 109.249 12.5254C109.47 12.3148 109.742 12.0548 110.092 11.7407C114.895 7.41422 122.593 5.50211 127.398 10.4783C132.727 16.0097 132.735 24.9949 127.423 30.525L106.037 51.7395L84.6519 30.525C79.3397 24.9949 79.3487 16.0093 84.6747 10.4809Z" fill="white"/>
</g>
</g>
<defs>
<clipPath id="clip0_479_206">
<rect width="220" height="220" fill="white"/>
</clipPath>
</defs>
</svg>
