<svg width="100" height="100" viewBox="0 0 100 100" fill="none" xmlns="http://www.w3.org/2000/svg">
<g id="icons">
<path id="Vector" fill-rule="evenodd" clip-rule="evenodd" d="M43.5037 69.4998C43.5037 68.8368 43.7671 68.2009 44.2359 67.7321C44.7047 67.2633 45.3406 66.9999 46.0036 66.9999H91.0016C91.6646 66.9999 92.3004 67.2633 92.7693 67.7321C93.2381 68.2009 93.5015 68.8368 93.5015 69.4998C93.5015 70.1628 93.2381 70.7986 92.7693 71.2675C92.3004 71.7363 91.6646 71.9997 91.0016 71.9997H46.0036C45.3406 71.9997 44.7047 71.7363 44.2359 71.2675C43.7671 70.7986 43.5037 70.1628 43.5037 69.4998ZM43.5037 49.5007C43.5037 48.8377 43.7671 48.2018 44.2359 47.733C44.7047 47.2642 45.3406 47.0008 46.0036 47.0008H91.0016C91.6646 47.0008 92.3004 47.2642 92.7693 47.733C93.2381 48.2018 93.5015 48.8377 93.5015 49.5007C93.5015 50.1637 93.2381 50.7995 92.7693 51.2684C92.3004 51.7372 91.6646 52.0006 91.0016 52.0006H46.0036C45.3406 52.0006 44.7047 51.7372 44.2359 51.2684C43.7671 50.7995 43.5037 50.1637 43.5037 49.5007ZM43.5037 29.5016C43.5037 28.8386 43.7671 28.2027 44.2359 27.7339C44.7047 27.2651 45.3406 27.0017 46.0036 27.0017H91.0016C91.6646 27.0017 92.3004 27.2651 92.7693 27.7339C93.2381 28.2027 93.5015 28.8386 93.5015 29.5016C93.5015 30.1646 93.2381 30.8004 92.7693 31.2693C92.3004 31.7381 91.6646 32.0015 91.0016 32.0015H46.0036C45.3406 32.0015 44.7047 31.7381 44.2359 31.2693C43.7671 30.8004 43.5037 30.1646 43.5037 29.5016ZM37.774 22.7319C38.0068 22.9641 38.1915 23.24 38.3175 23.5437C38.4435 23.8474 38.5084 24.173 38.5084 24.5018C38.5084 24.8306 38.4435 25.1562 38.3175 25.4599C38.1915 25.7636 38.0068 26.0395 37.774 26.2717L30.2743 33.7714C30.0421 34.0042 29.7662 34.1889 29.4625 34.3149C29.1588 34.4409 28.8332 34.5058 28.5044 34.5058C28.1756 34.5058 27.85 34.4409 27.5463 34.3149C27.2426 34.1889 26.9667 34.0042 26.7345 33.7714L24.2346 31.2715C24.0022 31.0391 23.8178 30.7631 23.692 30.4594C23.5662 30.1558 23.5015 29.8303 23.5015 29.5016C23.5015 29.1729 23.5662 28.8474 23.692 28.5437C23.8178 28.24 24.0022 27.9641 24.2346 27.7316C24.467 27.4992 24.743 27.3148 25.0466 27.1891C25.3503 27.0633 25.6758 26.9985 26.0045 26.9985C26.3332 26.9985 26.6587 27.0633 26.9624 27.1891C27.2661 27.3148 27.542 27.4992 27.7744 27.7316L28.5044 28.4666L34.2341 22.7319C34.4664 22.4991 34.7422 22.3144 35.0459 22.1883C35.3496 22.0623 35.6752 21.9974 36.0041 21.9974C36.3329 21.9974 36.6585 22.0623 36.9622 22.1883C37.2659 22.3144 37.5418 22.4991 37.774 22.7319ZM37.774 42.731C38.0068 42.9632 38.1915 43.2391 38.3175 43.5428C38.4435 43.8465 38.5084 44.1721 38.5084 44.5009C38.5084 44.8297 38.4435 45.1553 38.3175 45.459C38.1915 45.7627 38.0068 46.0386 37.774 46.2708L30.2743 53.7705C30.0421 54.0033 29.7662 54.188 29.4625 54.314C29.1588 54.44 28.8332 54.5049 28.5044 54.5049C28.1756 54.5049 27.85 54.44 27.5463 54.314C27.2426 54.188 26.9667 54.0033 26.7345 53.7705L24.2346 51.2706C23.7652 50.8012 23.5015 50.1645 23.5015 49.5007C23.5015 48.8368 23.7652 48.2002 24.2346 47.7308C24.704 47.2613 25.3407 46.9976 26.0045 46.9976C26.6684 46.9976 27.305 47.2613 27.7744 47.7308L28.5044 48.4657L34.2341 42.731C34.4664 42.4982 34.7422 42.3135 35.0459 42.1874C35.3496 42.0614 35.6752 41.9965 36.0041 41.9965C36.3329 41.9965 36.6585 42.0614 36.9622 42.1874C37.2659 42.3135 37.5418 42.4982 37.774 42.731ZM37.774 62.7301C38.0068 62.9623 38.1915 63.2382 38.3175 63.5419C38.4435 63.8456 38.5084 64.1712 38.5084 64.5C38.5084 64.8288 38.4435 65.1544 38.3175 65.4581C38.1915 65.7618 38.0068 66.0377 37.774 66.2699L30.2743 73.7696C30.0421 74.0024 29.7662 74.1871 29.4625 74.3131C29.1588 74.4391 28.8332 74.504 28.5044 74.504C28.1756 74.504 27.85 74.4391 27.5463 74.3131C27.2426 74.1871 26.9667 74.0024 26.7345 73.7696L24.2346 71.2697C23.7652 70.8003 23.5015 70.1636 23.5015 69.4998C23.5015 68.8359 23.7652 68.1993 24.2346 67.7299C24.704 67.2604 25.3407 66.9967 26.0045 66.9967C26.6684 66.9967 27.305 67.2604 27.7744 67.7299L28.5044 68.4648L34.2341 62.7301C34.4664 62.4973 34.7422 62.3126 35.0459 62.1865C35.3496 62.0605 35.6752 61.9956 36.0041 61.9956C36.3329 61.9956 36.6585 62.0605 36.9622 62.1865C37.2659 62.3126 37.5418 62.4973 37.774 62.7301Z" fill="#007F00"/>
</g>
</svg>
