<svg width="44" height="44" viewBox="0 0 44 44" fill="none" xmlns="http://www.w3.org/2000/svg">
<g id="cib:viber" clip-path="url(#clip0_111_300)">
<path id="Vector" d="M20.9366 0.792307C17.5317 0.833409 10.2115 1.39294 6.11712 5.14919C3.07155 8.16692 2.00818 12.6286 1.88355 18.1456C1.78013 23.6427 1.65549 33.9662 11.6063 36.777V41.0583C11.6063 41.0583 11.544 42.7714 12.6763 43.1228C14.0712 43.5643 14.8654 42.2463 16.1913 40.8303L18.664 38.034C25.4725 38.6001 30.6872 37.2955 31.2879 37.1019C32.6695 36.6604 40.4511 35.6659 41.7226 25.3412C43.0273 14.6784 41.0875 7.96008 37.5859 4.92114H37.5647C36.5079 3.94793 32.2611 0.853298 22.773 0.818825C22.773 0.818825 22.0689 0.771092 20.9366 0.790981V0.792307ZM21.0533 3.79015C22.0199 3.78352 22.6073 3.82462 22.6073 3.82462C30.6382 3.84584 34.4713 6.26294 35.3756 7.07704C38.3244 9.60419 39.8439 15.6609 38.7314 24.5629C37.6747 33.1945 31.3634 33.7407 30.1953 34.1133C29.6981 34.2724 25.1052 35.4047 19.319 35.0322C19.319 35.0322 15.0099 40.2323 13.6628 41.5715C13.4493 41.8062 13.2 41.8751 13.0409 41.8406C12.8129 41.7849 12.7439 41.5025 12.7572 41.1154L12.7983 34.0099C4.35899 31.6763 4.8562 22.8711 4.94636 18.2716C5.04978 13.672 5.91293 9.90915 8.48251 7.36078C11.9418 4.233 18.1576 3.81137 21.0507 3.79015H21.0533ZM21.6897 8.38835C21.6203 8.38765 21.5514 8.4007 21.487 8.42676C21.4226 8.45281 21.364 8.49136 21.3146 8.54017C21.2651 8.58897 21.2259 8.64708 21.199 8.71114C21.1721 8.7752 21.1582 8.84394 21.1581 8.9134C21.1581 9.2104 21.3994 9.44508 21.6897 9.44508C23.0044 9.42008 24.3109 9.65559 25.5341 10.138C26.7573 10.6205 27.8728 11.3403 28.8164 12.256C30.7429 14.1268 31.6817 16.6407 31.7175 19.9276C31.7175 20.218 31.9521 20.4593 32.2491 20.4593V20.4381C32.3891 20.4384 32.5236 20.3834 32.6232 20.2851C32.7228 20.1867 32.7794 20.053 32.7808 19.913C32.8452 18.3659 32.5943 16.8218 32.0434 15.3747C31.4925 13.9276 30.6531 12.6076 29.5761 11.4949C27.4773 9.44376 24.8175 8.38702 21.6897 8.38702V8.38835ZM14.701 9.60419C14.3257 9.54935 13.9429 9.62469 13.6164 9.81766H13.5885C12.8305 10.262 12.1476 10.8236 11.5652 11.4817C11.0813 12.0412 10.8187 12.6073 10.7498 13.1523C10.7087 13.4771 10.7365 13.802 10.8333 14.1122L10.8678 14.1334C11.4127 15.7351 12.1247 17.2758 12.9945 18.7263C14.1149 20.7642 15.4938 22.6488 17.0968 24.3335L17.1446 24.4025L17.2201 24.4582L17.2679 24.5139L17.3236 24.5616C19.0144 26.1694 20.9036 27.5546 22.9454 28.6838C25.2789 29.954 26.695 30.5546 27.5449 30.8039V30.8172C27.7941 30.8927 28.0209 30.9272 28.2489 30.9272C28.9732 30.8741 29.6589 30.5801 30.1967 30.0919C30.8517 29.5094 31.4071 28.8237 31.8408 28.0619V28.0487C32.2478 27.2823 32.1099 26.5571 31.5226 26.0665C30.3462 25.0382 29.0742 24.125 27.7239 23.3391C26.8196 22.8485 25.9008 23.1455 25.5282 23.6427L24.734 24.6438C24.3269 25.141 23.5871 25.0721 23.5871 25.0721L23.5659 25.0853C18.0488 23.6759 16.5771 18.0899 16.5771 18.0899C16.5771 18.0899 16.5081 17.3302 17.0186 16.943L18.013 16.1422C18.489 15.755 18.8205 14.8375 18.31 13.9319C17.5296 12.5797 16.6183 11.3074 15.5893 10.1332C15.3643 9.85642 15.0487 9.66809 14.6983 9.60154L14.701 9.60419ZM22.6073 11.1794C21.9032 11.1794 21.9032 12.2427 22.6139 12.2427C23.4893 12.2569 24.3534 12.4435 25.1567 12.7918C25.9601 13.1401 26.6869 13.6433 27.2956 14.2727C27.8509 14.8852 28.2776 15.603 28.5505 16.3835C28.8233 17.164 28.9368 17.9914 28.884 18.8165C28.8865 18.9561 28.9435 19.0893 29.0428 19.1874C29.1422 19.2855 29.2761 19.3409 29.4157 19.3415L29.4369 19.3694C29.5776 19.3684 29.7122 19.312 29.8117 19.2125C29.9112 19.113 29.9676 18.9784 29.9686 18.8377C30.0163 16.7309 29.3614 14.9635 28.0766 13.5474C26.7851 12.1313 24.9833 11.3371 22.6828 11.1794H22.6073ZM23.4784 14.038C22.7531 14.0168 22.7253 15.1013 23.4439 15.1226C25.1914 15.2127 26.04 16.0958 26.1514 17.9122C26.1538 18.0501 26.2101 18.1816 26.3082 18.2785C26.4064 18.3754 26.5385 18.43 26.6764 18.4307H26.6976C26.7685 18.4276 26.8381 18.4105 26.9023 18.3803C26.9665 18.35 27.0241 18.3073 27.0716 18.2546C27.1191 18.2019 27.1557 18.1403 27.1791 18.0733C27.2025 18.0063 27.2124 17.9353 27.2081 17.8645C27.0835 15.4965 25.792 14.1626 23.4996 14.0393H23.4784V14.038Z" fill="white"/>
</g>
<defs>
<clipPath id="clip0_111_300">
<rect width="42.4286" height="42.4286" fill="white" transform="translate(0.785706 0.785889)"/>
</clipPath>
</defs>
</svg>
