<svg width="49" height="48" viewBox="0 0 49 48" fill="none" xmlns="http://www.w3.org/2000/svg">
<g id="favorite 1" clip-path="url(#clip0_6007_2549)">
<g id="Group">
<path id="Vector" d="M42.4875 48C42.2915 48 42.0955 47.942 41.9255 47.828L35.0715 43.164L28.2175 47.828C27.8755 48.062 27.4235 48.058 27.0815 47.82C26.7395 47.582 26.5835 47.158 26.6855 46.756L28.8075 38.38L22.4235 32.928C22.1135 32.662 21.9955 32.234 22.1255 31.848C22.2555 31.462 22.6075 31.192 23.0155 31.17L31.1815 30.708L34.1355 22.658C34.4255 21.87 35.7235 21.87 36.0115 22.658L38.9655 30.708L47.1315 31.17C47.5395 31.192 47.8915 31.462 48.0215 31.848C48.1515 32.234 48.0335 32.662 47.7235 32.928L41.3395 38.38L43.4615 46.756C43.5635 47.158 43.4055 47.582 43.0655 47.82C42.8895 47.94 42.6895 48 42.4875 48ZM35.0715 40.954C35.2675 40.954 35.4635 41.012 35.6335 41.126L40.8715 44.69L39.2455 38.268C39.1535 37.9 39.2775 37.51 39.5655 37.262L44.5275 33.024L38.1935 32.664C37.7955 32.642 37.4475 32.384 37.3115 32.01L35.0715 25.902L32.8315 32.01C32.6955 32.384 32.3475 32.64 31.9495 32.664L25.6155 33.024L30.5775 37.262C30.8675 37.51 30.9915 37.9 30.8975 38.268L29.2715 44.69L34.5095 41.126C34.6795 41.01 34.8755 40.954 35.0715 40.954Z" fill="#007F00"/>
</g>
<g id="Group_2">
<path id="Vector_2" d="M21.0714 40H1.07145C0.519446 40 0.0714455 39.552 0.0714455 39V31C0.0714455 27.14 3.21145 24 7.07145 24H27.0714C27.6234 24 28.0714 24.448 28.0714 25C28.0714 25.552 27.6234 26 27.0714 26H7.07145C4.31545 26 2.07145 28.244 2.07145 31V38H21.0714C21.6234 38 22.0714 38.448 22.0714 39C22.0714 39.552 21.6234 40 21.0714 40Z" fill="#007F00"/>
</g>
<g id="Group_3">
<path id="Vector_3" d="M16.0714 20C12.2114 20 9.07145 16.86 9.07145 13C9.07145 12.448 9.51945 12 10.0714 12C13.5074 12 15.0714 9.408 15.0714 7C15.0714 6.448 15.5194 6 16.0714 6C16.6234 6 17.0714 6.448 17.0714 7C17.0714 9.408 18.6354 12 22.0714 12C22.6234 12 23.0714 12.448 23.0714 13C23.0714 16.86 19.9314 20 16.0714 20ZM11.1574 13.93C11.5954 16.244 13.6334 18 16.0714 18C18.5094 18 20.5474 16.244 20.9854 13.93C18.6834 13.63 17.0334 12.376 16.0714 10.738C15.1094 12.376 13.4594 13.63 11.1574 13.93Z" fill="#007F00"/>
</g>
<g id="Group_4">
<path id="Vector_4" d="M24.0715 20H8.07148C6.41748 20 5.07148 18.654 5.07148 17V11C5.07148 4.934 10.0055 0 16.0715 0C22.1375 0 27.0715 4.934 27.0715 11V17C27.0715 18.654 25.7255 20 24.0715 20ZM16.0715 2C11.1095 2 7.07148 6.038 7.07148 11V17C7.07148 17.552 7.51948 18 8.07148 18H24.0715C24.6235 18 25.0715 17.552 25.0715 17V11C25.0715 6.038 21.0335 2 16.0715 2Z" fill="#007F00"/>
</g>
</g>
<defs>
<clipPath id="clip0_6007_2549">
<rect width="48" height="48" fill="white" transform="translate(0.0714283)"/>
</clipPath>
</defs>
</svg>
