<svg width="74" height="74" viewBox="0 0 74 74" fill="none" xmlns="http://www.w3.org/2000/svg">
<g id="logos:telegram" clip-path="url(#clip0_111_295)" filter="url(#filter0_d_111_295)">
<path id="Vector" d="M37 2C18.7745 2 4 16.7745 4 35C4 53.2255 18.7745 68 37 68C55.2255 68 70 53.2255 70 35C70 16.7745 55.2255 2 37 2Z" fill="#40B3E0"/>
<path id="Vector_2" d="M53.0573 20.9828L47.163 50.7006C47.163 50.7006 46.3387 52.7616 44.0718 51.7723L30.4701 41.3443L25.5243 38.9539L17.1985 36.151C17.1985 36.151 15.9207 35.6977 15.797 34.7085C15.6732 33.7193 17.2397 33.1835 17.2397 33.1835L50.3366 20.2001C50.3366 20.2001 53.0571 19.0049 53.0571 20.9833" fill="white"/>
<path id="Vector_3" d="M29.4249 50.3665C29.4249 50.3665 29.0279 50.3294 28.5329 48.7629C28.0387 47.1967 25.5242 38.9534 25.5242 38.9534L45.5145 26.2587C45.5145 26.2587 46.6687 25.558 46.6275 26.2587C46.6275 26.2587 46.8335 26.3825 46.215 26.9594C45.597 27.5367 30.5116 41.0968 30.5116 41.0968" fill="#D2E5F1"/>
<path id="Vector_4" d="M35.6854 45.3422L30.3056 50.2474C30.3056 50.2474 29.8849 50.5665 29.4249 50.3665L30.4552 41.2554" fill="#B5CFE4"/>
</g>
<defs>
<filter id="filter0_d_111_295" x="0" y="0" width="74" height="74" filterUnits="userSpaceOnUse" color-interpolation-filters="sRGB">
<feFlood flood-opacity="0" result="BackgroundImageFix"/>
<feColorMatrix in="SourceAlpha" type="matrix" values="0 0 0 0 0 0 0 0 0 0 0 0 0 0 0 0 0 0 127 0" result="hardAlpha"/>
<feOffset dy="2"/>
<feGaussianBlur stdDeviation="2"/>
<feColorMatrix type="matrix" values="0 0 0 0 0 0 0 0 0 0.0941176 0 0 0 0 0.439216 0 0 0 0.21 0"/>
<feBlend mode="normal" in2="BackgroundImageFix" result="effect1_dropShadow_111_295"/>
<feBlend mode="normal" in="SourceGraphic" in2="effect1_dropShadow_111_295" result="shape"/>
</filter>
<clipPath id="clip0_111_295">
<rect width="66" height="66" fill="white" transform="translate(4 2)"/>
</clipPath>
</defs>
</svg>
