<svg width="150" height="152" viewBox="0 0 150 152" fill="none" xmlns="http://www.w3.org/2000/svg">
<g id="podium 1" opacity="0.6" clip-path="url(#clip0_472_0)" filter="url(#filter0_d_472_0)">
<g id="Group">
<path id="Vector" d="M28.3233 125.724C28.0907 126.911 26.9364 127.692 25.7487 127.459C24.5613 127.227 23.7806 126.073 24.0132 124.885C24.3454 123.224 25.2422 121.771 26.5046 120.733C27.7503 119.711 29.3364 119.097 31.0556 119.097C33.0319 119.097 34.8258 119.902 36.1213 121.198C37.4253 122.493 38.2225 124.287 38.2225 126.264C38.2225 128.199 37.4587 129.951 36.2212 131.246C37.4587 132.534 38.2225 134.286 38.2225 136.221C38.2225 138.197 37.4253 139.991 36.1213 141.287C34.8258 142.59 33.0319 143.388 31.0556 143.388C29.2617 143.388 27.6176 142.723 26.3549 141.627C24.7937 140.274 23.8802 138.28 23.8802 136.221C23.8802 135 24.8605 134.02 26.0813 134.02C27.2936 134.02 28.2735 135 28.2735 136.221C28.2735 137.035 28.5973 137.774 29.2286 138.322C29.7103 138.737 30.3495 138.995 31.0556 138.995C31.8196 138.995 32.5172 138.687 33.0152 138.181C33.5218 137.683 33.8291 136.985 33.8291 136.221C33.8291 135.448 33.5218 134.759 33.0152 134.253C32.4923 133.729 31.7944 133.439 31.0556 133.439C29.843 133.439 28.8548 132.459 28.8548 131.246C28.8548 130.026 29.843 129.046 31.0556 129.046C31.8196 129.046 32.5172 128.738 33.0152 128.232C33.5218 127.734 33.8291 127.036 33.8291 126.264C33.8291 125.5 33.5218 124.802 33.0152 124.304C32.5172 123.797 31.8196 123.49 31.0556 123.49C30.3744 123.49 29.7598 123.723 29.2866 124.113C28.7965 124.511 28.4561 125.076 28.3233 125.724ZM78.0519 22.0643L80.751 26.4573L85.7587 27.6614C86.7138 27.894 87.486 28.492 87.9598 29.2643C88.4329 30.045 88.6075 31.0001 88.3831 31.9552C88.3084 32.2458 88.217 32.5033 88.1007 32.7356C87.9762 32.9765 87.8183 33.2091 87.6273 33.4332L84.2889 37.3531L84.6873 42.519L84.6955 42.5938C84.7453 43.5403 84.4131 44.4292 83.8234 45.1101C83.2336 45.7997 82.3784 46.2644 81.3985 46.3391C81.0747 46.364 80.7589 46.3391 80.4601 46.2811C80.1609 46.223 79.8703 46.1314 79.6046 45.9986L75.0038 44.097L70.2205 46.0733C69.307 46.4472 68.3356 46.4223 67.505 46.0733C66.6577 45.7162 65.952 45.0436 65.5781 44.1386C65.4703 43.8811 65.3956 43.6156 65.354 43.3496C65.3039 43.0675 65.2957 42.7851 65.3124 42.5193L65.7108 37.3534L62.3725 33.4335C61.7329 32.6861 61.459 31.756 61.5252 30.851C61.6002 29.9375 62.0153 29.0574 62.7627 28.4176C63.012 28.2102 63.261 28.044 63.5186 27.911C63.5766 27.8861 63.6346 27.8612 63.6929 27.836C63.9255 27.7446 64.1496 27.6702 64.3825 27.6204L64.4654 27.6122L69.2572 26.4494L71.9643 22.0481V22.0399C72.4793 21.2012 73.285 20.653 74.1735 20.4371C75.0618 20.2294 76.0339 20.3542 76.8724 20.8689C76.9392 20.9105 77.0054 20.9604 77.0634 21.0099C77.2377 21.1265 77.3956 21.2674 77.5365 21.4171C77.7363 21.616 77.9107 21.8316 78.0519 22.0643ZM77.4788 29.5218L74.9956 25.4858L72.5209 29.5136V29.5054C72.2303 29.9867 71.7571 30.3526 71.1674 30.4936L66.5748 31.6065L69.5646 35.111C69.9715 35.5429 70.2123 36.1408 70.1625 36.7886L69.7969 41.5145L74.1653 39.7039C74.6801 39.4959 75.278 39.4792 75.8344 39.7039L80.211 41.5145L79.8375 36.7886H79.8457C79.8041 36.2322 79.9702 35.6595 80.3608 35.2024L83.4252 31.6068L78.9987 30.5354C78.3923 30.4355 77.8275 30.0866 77.4788 29.5218ZM90.5092 41.7298C90.999 40.6253 92.2945 40.127 93.3993 40.6253C94.5038 41.1151 95.0022 42.4106 94.5038 43.5151C93.1172 46.6212 91.6052 49.4114 90.0856 51.8199C91.2815 51.5791 92.5272 51.1889 93.7814 50.6489C96.4887 49.4779 99.196 47.6425 101.538 45.1927C102.867 43.8061 103.996 42.3441 104.91 40.8576C105.848 39.3377 106.571 37.7847 107.077 36.2483C107.808 34.0229 108.049 31.8887 107.775 30.0198C107.526 28.3757 106.878 26.9557 105.782 25.9174C104.851 25.0291 103.772 24.5141 102.609 24.2647C101.837 24.0986 101.023 24.0488 100.192 24.074C99.7108 27.3875 98.9801 30.6761 98.0417 33.8899C97.701 35.0527 96.4887 35.7254 95.3259 35.385C94.1631 35.0527 93.4989 33.8319 93.8309 32.6691C94.6863 29.7708 95.3754 26.6814 95.8489 23.4594C96.1814 21.2085 96.397 18.8999 96.4887 16.5415H53.5198C53.8023 24.406 55.5879 31.8137 58.021 38.1585C60.1389 43.6895 64.5401 52.5922 69.5482 56.7362C74.7967 61.0713 71.3086 66.1953 67.4801 71.8092C65.7527 74.3507 63.9255 77.0246 63.1699 79.4911H86.8301C86.0742 77.0246 84.2558 74.3507 82.5199 71.8092C78.6996 66.1953 75.2033 61.0713 80.4519 56.7362C81.9633 55.4905 83.7322 53.4392 85.551 50.7485C87.2534 48.224 88.9644 45.1684 90.5092 41.7298ZM86.7803 56.4623C85.5513 57.9734 84.3554 59.2027 83.2506 60.1165C81.0832 61.9101 83.4999 65.4567 86.1407 69.3348C88.333 72.5486 90.6416 75.9371 91.3559 79.4914H96.9782C98.1908 79.4914 99.1705 80.4796 99.1705 81.6922V93.4104H140.918C142.139 93.4104 143.119 94.3903 143.119 95.6026V104.19C143.119 105.402 142.139 106.382 140.918 106.382C139.706 106.382 138.726 105.402 138.726 104.19V97.8034H99.1708V147.607H138.726V114.139C138.726 112.926 139.706 111.946 140.919 111.946C142.139 111.946 143.12 112.926 143.12 114.139V149.808C143.12 151.02 142.139 152 140.919 152C96.9782 152 53.0297 152 9.08115 152C7.86855 152 6.88037 151.02 6.88037 149.808V131.546C6.88037 130.333 7.86855 129.353 9.08115 129.353C10.2938 129.353 11.2734 130.333 11.2734 131.546V147.607H50.8289V114.878H11.2737V121.597C11.2737 122.809 10.2938 123.789 9.08145 123.789C7.86885 123.789 6.88066 122.809 6.88066 121.597V112.677C6.88066 111.465 7.86885 110.485 9.08145 110.485H50.8292V101.856C50.8292 100.644 51.8095 99.6556 53.03 99.6556C54.2426 99.6556 55.2226 100.644 55.2226 101.856V147.607H94.778V83.8927H89.3877H60.6117H55.2223V91.8986C55.2223 93.1194 54.242 94.0994 53.0297 94.0994C51.8092 94.0994 50.8289 93.1194 50.8289 91.8986V81.6919C50.8289 80.4793 51.8092 79.4911 53.0297 79.4911H58.6439C59.3663 75.9368 61.6752 72.5483 63.8593 69.3345C66.5083 65.4564 68.9171 61.9098 66.7576 60.1162C65.6616 59.2109 64.4657 57.9819 63.2364 56.462C60.5042 56.5865 57.4811 55.9719 54.4831 54.6849C51.2692 53.2979 48.0636 51.1139 45.2816 48.2155C41.3534 44.0964 38.8702 39.2876 38.0484 34.8365C37.1599 30.0781 38.1396 25.6681 41.1958 22.7366C42.7652 21.2416 44.5676 20.3864 46.4859 19.9795C47.4076 19.78 48.3545 19.6889 49.3011 19.6804C49.2097 18.5343 49.1435 17.38 49.1104 16.209C47.981 15.8519 46.9594 15.229 46.1455 14.4069C44.8251 13.0947 44.0112 11.2757 44.0112 9.27441C44.0112 7.27285 44.8251 5.4541 46.1455 4.13369C47.4571 2.82236 49.2759 2 51.2774 2H98.7223C100.724 2 102.542 2.82236 103.855 4.13428C105.175 5.45469 105.989 7.27344 105.989 9.275C105.989 11.2763 105.175 13.095 103.855 14.4075C103.041 15.2299 102.028 15.8527 100.89 16.2096C100.857 17.3806 100.79 18.5349 100.699 19.681C101.646 19.6892 102.592 19.7806 103.514 19.9801C105.432 20.3873 107.235 21.2425 108.805 22.7372C110.64 24.4979 111.728 26.7898 112.118 29.3891C112.492 31.9221 112.185 34.7457 111.246 37.6024C110.648 39.4461 109.768 41.3231 108.638 43.1586C107.551 44.9108 106.247 46.6133 104.718 48.2161C101.945 51.1145 98.7308 53.2985 95.5169 54.6772C92.5269 55.9725 89.504 56.5868 86.7803 56.4623ZM59.9227 51.8284C57.7802 48.4399 55.679 44.3378 53.9183 39.7203C52.1077 34.9862 50.6297 29.6961 49.7991 24.0743C48.9768 24.0491 48.1632 24.0989 47.3906 24.265C46.2281 24.5144 45.1485 25.0291 44.2184 25.9177C42.3082 27.7446 41.7352 30.718 42.3495 34.0479C43.0307 37.702 45.1236 41.6967 48.462 45.193C50.8037 47.6428 53.511 49.4782 56.2187 50.6492C57.4811 51.1889 58.7268 51.5876 59.9227 51.8284ZM51.2774 12.1484H98.7223C99.511 12.1484 100.226 11.8247 100.748 11.3012C101.272 10.7782 101.596 10.0637 101.596 9.275C101.596 8.48604 101.272 7.76357 100.748 7.24033C100.226 6.71738 99.511 6.39336 98.7223 6.39336H51.2774C50.4885 6.39336 49.7742 6.71738 49.251 7.24033C48.728 7.76357 48.404 8.48604 48.404 9.275C48.404 10.0637 48.7277 10.7782 49.251 11.3012C49.7742 11.8244 50.4885 12.1484 51.2774 12.1484ZM124.725 121.322C125.929 121.314 126.926 122.277 126.934 123.49C126.95 124.694 125.979 125.691 124.775 125.699C124.75 125.699 114.95 125.831 114.144 125.558C112.55 125.026 112.052 123.872 112.807 122.344C113.015 121.895 113.388 121.405 114.061 120.525C115.083 119.188 116.943 116.746 119.966 112.428C120.456 111.722 120.838 111.082 121.129 110.501C121.768 109.189 122.092 107.927 120.913 106.747C120.415 106.241 119.717 105.933 118.953 105.933C118.272 105.933 117.657 106.166 117.184 106.556C116.694 106.955 116.345 107.519 116.221 108.167C115.988 109.355 114.834 110.136 113.646 109.903C112.458 109.67 111.678 108.516 111.911 107.329C112.243 105.668 113.14 104.206 114.402 103.176C115.648 102.155 117.234 101.54 118.953 101.54C120.929 101.54 122.723 102.338 124.019 103.641C125.63 105.252 126.477 107.702 125.962 109.953C125.788 110.709 125.497 111.531 125.057 112.428C124.675 113.208 124.177 114.047 123.554 114.936C121.469 117.909 119.974 119.96 118.903 121.389C121.519 121.364 124.708 121.322 124.725 121.322ZM72.9196 92.0231C71.707 92.0231 70.7271 91.035 70.7271 89.8224C70.7271 88.6095 71.7073 87.6213 72.9196 87.6213H77.0801C78.2927 87.6213 79.2724 88.6095 79.2724 89.8224V109.263C79.2724 112.153 74.8793 112.153 74.8793 109.263V92.0229H72.9196V92.0231Z" fill="white"/>
</g>
</g>
<defs>
<filter id="filter0_d_472_0" x="-4" y="0" width="158" height="158" filterUnits="userSpaceOnUse" color-interpolation-filters="sRGB">
<feFlood flood-opacity="0" result="BackgroundImageFix"/>
<feColorMatrix in="SourceAlpha" type="matrix" values="0 0 0 0 0 0 0 0 0 0 0 0 0 0 0 0 0 0 127 0" result="hardAlpha"/>
<feOffset dy="2"/>
<feGaussianBlur stdDeviation="2"/>
<feColorMatrix type="matrix" values="0 0 0 0 0 0 0 0 0 0.0941176 0 0 0 0 0.439216 0 0 0 0.21 0"/>
<feBlend mode="normal" in2="BackgroundImageFix" result="effect1_dropShadow_472_0"/>
<feBlend mode="normal" in="SourceGraphic" in2="effect1_dropShadow_472_0" result="shape"/>
</filter>
<clipPath id="clip0_472_0">
<rect width="150" height="150" fill="white" transform="translate(0 2)"/>
</clipPath>
</defs>
</svg>
