<svg width="49" height="48" viewBox="0 0 49 48" fill="none" xmlns="http://www.w3.org/2000/svg">
<g id="technical-support 1" clip-path="url(#clip0_6007_1494)">
<g id="Group">
<g id="Group_2">
<path id="Vector" d="M48.0534 21.3343C48.0479 19.7463 46.7774 18.3811 45.0696 18.3811L45.0418 18.3809C44.9225 18.3789 44.8154 18.2932 44.7815 18.1723C44.3115 16.4967 43.639 14.8858 42.7796 13.3747C42.7072 13.2473 42.7232 13.0853 42.8273 12.9823C42.8279 12.9817 42.8286 12.9811 42.8291 12.9805C43.3784 12.4386 43.6816 11.7065 43.6829 10.9193C43.6841 10.1228 43.3635 9.34706 42.8032 8.79066L39.1494 5.16225C39.1494 5.16216 39.1494 5.16216 39.1494 5.16216C37.9973 4.01822 36.1066 3.98578 34.9592 5.16581C34.9425 5.18306 34.9255 5.19966 34.9092 5.21494C34.8323 5.28713 34.7046 5.29584 34.5986 5.23641C33.0732 4.37925 31.4436 3.711 29.7549 3.24984C29.6332 3.21666 29.5463 3.10987 29.5436 2.99016L29.5432 2.95791C29.5325 1.32478 28.1979 0 26.5658 0C26.5624 0 26.5587 0 26.5552 0L21.3908 0.0180937C20.5976 0.0208125 19.8545 0.333844 19.2983 0.899531C18.7422 1.46531 18.4418 2.21381 18.4526 2.99953L18.4525 3.02916C18.4506 3.14869 18.3646 3.25603 18.2434 3.29006C16.5577 3.76294 14.9327 4.44281 13.4133 5.31066C13.3079 5.37066 13.1803 5.36287 13.1027 5.29106C13.0852 5.27503 13.0682 5.25834 13.052 5.24213C12.5073 4.68984 11.7755 4.38497 10.9911 4.38366C10.9895 4.38366 10.9879 4.38366 10.9862 4.38366C10.1946 4.38366 9.42055 4.70597 8.86218 5.26819L5.23377 8.92209C4.09836 10.0655 4.06171 11.9686 5.23733 13.1122C5.24202 13.1215 5.42286 13.2682 5.30089 13.4857C4.44721 15.0074 3.7813 16.6327 3.32164 18.3164C3.28996 18.4324 3.1828 18.5282 3.02961 18.5282C1.39283 18.5391 0.0658939 19.8795 0.0716127 21.5163L0.0896127 26.6585C0.0953314 28.2926 1.41768 29.6187 3.0628 29.6187H3.07358C3.08296 29.622 3.29793 29.6003 3.36186 29.8283C3.83418 31.5117 4.51293 33.135 5.37946 34.6533C5.50096 34.8663 5.31843 35.0101 5.31364 35.0195C4.13389 36.1827 4.20974 38.0872 5.3398 39.2093L8.99361 42.8376C10.1439 43.9797 12.0345 44.0154 13.1841 42.8337C13.2829 42.7317 13.3957 42.6799 13.5441 42.763C15.0696 43.6204 16.6996 44.2888 18.3886 44.7499C18.51 44.7831 18.5967 44.8897 18.5994 45.009C18.6073 45.0487 18.5205 46.1883 19.4712 47.1358C20.0307 47.6933 20.7728 47.9999 21.5622 47.9999H21.5729L26.7074 47.9819C28.3416 47.9762 29.6797 46.642 29.6902 45.0001L29.6904 44.9713C29.6923 44.8513 29.7787 44.7435 29.9009 44.7092C31.5856 44.2365 33.2099 43.557 34.7287 42.6897C34.8349 42.6292 34.9632 42.6371 35.0409 42.709C36.4003 43.9678 38.1587 43.8616 39.2809 42.7315L42.9092 39.0776C44.0467 37.9322 44.0791 36.0291 42.9058 34.8877L42.904 34.886C42.8003 34.785 42.7787 34.6275 42.8494 34.5013C43.7001 32.982 44.3627 31.3639 44.8217 29.6826C44.8548 29.5613 44.9613 29.4747 45.0826 29.472C45.1141 29.4655 46.2874 29.5521 47.2422 28.56C47.7882 27.9927 48.0741 27.2238 48.0713 26.4364L48.0534 21.3343ZM45.0486 28.0662C44.3121 28.083 43.6608 28.5954 43.465 29.3123C42.984 31.0745 42.3547 32.609 41.4151 34.1755C41.1074 34.6886 41.3059 35.25 41.9253 35.8959C42.5145 36.5104 42.4993 37.4948 41.9114 38.0871L38.2831 41.7409C37.777 42.2506 37.1455 42.2117 37.155 42.2098C36.57 42.2089 36.2754 41.9359 35.9963 41.6772C35.4647 41.1851 34.6751 41.1012 34.0315 41.4687C32.6126 42.279 31.0951 42.9137 29.5211 43.3554C28.8042 43.5566 28.2956 44.2125 28.2846 44.9493C28.2673 45.9455 27.515 46.5728 26.7026 46.5758L21.5679 46.5938C20.7602 46.5893 20.0274 46.0007 20.0053 44.9774C19.9885 44.2405 19.476 43.5892 18.7589 43.3934C17.181 42.9626 15.6583 42.3382 14.2329 41.5372C13.613 41.1888 12.7904 41.2198 12.1755 41.8538C11.5739 42.4722 10.5801 42.4312 9.98446 41.8398L6.33064 38.2115C5.77199 37.6567 5.64664 36.6984 6.34846 35.973C6.8683 35.4363 6.97208 34.607 6.60074 33.9563C5.79121 32.5379 5.15699 31.0212 4.7158 29.4486C4.52455 28.7669 3.90008 28.2125 3.06561 28.2125C2.20555 28.2187 1.49877 27.5203 1.49577 26.6535L1.47777 21.5113C1.47477 20.6475 2.17499 19.9402 3.03514 19.9344C3.03636 19.9344 3.04621 19.9343 3.04743 19.9343C3.80802 19.9303 4.47861 19.4173 4.67811 18.6868C5.10758 17.1139 5.72971 15.5953 6.52733 14.1735C6.8863 13.5335 6.81336 12.6826 6.21768 12.1039C5.60746 11.5103 5.64355 10.505 6.23155 9.91284L9.85996 6.25894C10.1561 5.96072 10.5665 5.78981 10.9861 5.78981H10.9887C11.3946 5.79056 11.7717 5.94666 12.0513 6.23016C12.083 6.26231 12.1155 6.29363 12.1481 6.32381C12.6794 6.81516 13.4679 6.89859 14.1105 6.53175C15.5301 5.721 17.0483 5.08584 18.6231 4.644C19.3388 4.44319 19.847 3.78834 19.8586 3.04912L19.8588 2.98763C19.8531 2.57259 20.0103 2.181 20.3013 1.88494C20.5982 1.58297 21.0125 1.42547 21.4359 1.42397L26.5602 1.40625H26.5856C27.4458 1.40625 28.1332 2.10994 28.1369 2.97009C28.137 2.98744 28.1373 3.00469 28.1376 3.02203C28.1542 3.75909 28.667 4.41066 29.3844 4.60659C30.9621 5.03737 32.4846 5.66175 33.9097 6.46256C34.5448 6.81938 35.3646 6.76781 35.9678 6.14578C36.5662 5.5305 37.5591 5.56481 38.1586 6.16012V6.16003L41.8124 9.78853C42.1082 10.0822 42.2773 10.4936 42.2767 10.9171C42.2761 11.3259 42.1215 11.7034 41.8416 11.9795C41.713 12.1063 41.5971 12.2437 41.4944 12.3909C41.1871 12.8315 41.1722 13.4141 41.4473 13.8755C42.3441 15.379 42.9512 16.854 43.4275 18.5521C43.6282 19.2675 44.2829 19.7753 45.0173 19.787C46.0519 19.8056 46.6446 20.5437 46.6473 21.3393L46.6652 26.4956C46.668 27.2919 46.0774 28.0407 45.0486 28.0662Z" fill="#007F00"/>
<path id="Vector_2" d="M24.0715 9.52271C16.0887 9.52271 9.59416 16.0171 9.59416 24.0001C9.59416 31.983 16.0887 38.4774 24.0715 38.4774C32.0543 38.4774 38.5489 31.983 38.5489 24.0001C38.5489 16.0171 32.0543 9.52271 24.0715 9.52271ZM24.0715 37.0711C16.8641 37.0711 11.0004 31.2075 11.0004 24.0001C11.0004 16.7926 16.8641 10.929 24.0715 10.929C31.2789 10.929 37.1426 16.7926 37.1426 24.0001C37.1426 31.2075 31.2789 37.0711 24.0715 37.0711Z" fill="#007F00"/>
<path id="Vector_3" d="M32.1415 16.7259C31.6256 16.2948 30.9727 16.0909 30.3033 16.1507C29.6337 16.2109 29.0277 16.5281 28.5967 17.044L21.1074 26.0101L18.5445 23.3729C18.076 22.8907 17.4479 22.62 16.7757 22.6104C16.104 22.6009 15.4679 22.8535 14.9859 23.322C14.5039 23.7905 14.2331 24.4186 14.2235 25.0907C14.214 25.7628 14.4666 26.3984 14.9351 26.8804L19.4442 31.5203C19.9152 32.0049 20.573 32.2828 21.2488 32.2828C21.2799 32.2828 21.3112 32.2823 21.3436 32.2812C22.0547 32.2543 22.7242 31.9257 23.1802 31.3795L32.4597 20.2705C33.3492 19.2056 33.2064 17.6154 32.1415 16.7259ZM31.3804 19.3692L22.1008 30.4782C21.8996 30.7192 21.6042 30.8641 21.2915 30.8759C20.9768 30.8869 20.6703 30.7644 20.4525 30.5403L15.9435 25.9004C15.7368 25.6878 15.6253 25.4074 15.6295 25.1109C15.6337 24.8143 15.7532 24.5372 15.9659 24.3306C16.1747 24.1276 16.4487 24.0164 16.7393 24.0164C16.7448 24.0164 16.7502 24.0164 16.7555 24.0165C17.0521 24.0208 17.3292 24.1402 17.5359 24.3529L20.6427 27.5497C20.7815 27.6925 20.9749 27.7675 21.1734 27.7624C21.3725 27.7549 21.5589 27.6633 21.6866 27.5104L29.6761 17.9456C29.8662 17.7179 30.1336 17.578 30.429 17.5515C30.7246 17.5252 31.0124 17.6153 31.24 17.8052C31.7099 18.1976 31.7728 18.8992 31.3804 19.3692Z" fill="#007F00"/>
<path id="Vector_4" d="M34.305 36.4622C31.4321 38.8242 27.7978 40.1249 24.0715 40.1249C15.1801 40.1249 7.94649 32.8914 7.94649 24C7.94649 20.274 9.24708 16.6399 11.6087 13.7672C11.8553 13.4673 11.8121 13.0242 11.5121 12.7775C11.2121 12.5309 10.7691 12.5743 10.5225 12.8742C7.95446 15.998 6.54024 19.9492 6.54024 24C6.54024 33.6667 14.4047 41.5312 24.0715 41.5312C28.1227 41.5312 32.0743 40.1167 35.1981 37.5484C35.4981 37.3018 35.5413 36.8588 35.2947 36.5588C35.0481 36.2589 34.6049 36.2155 34.305 36.4622Z" fill="#007F00"/>
<path id="Vector_5" d="M24.0715 6.46875C20.0195 6.46875 16.0675 7.88372 12.9432 10.4529C12.6433 10.6996 12.6001 11.1427 12.8467 11.4427C13.0933 11.7426 13.5364 11.7857 13.8364 11.5391C16.7097 9.17625 20.3446 7.875 24.0715 7.875C32.9629 7.875 40.1965 15.1087 40.1965 24C40.1965 27.7263 38.8956 31.3607 36.5336 34.2337C36.287 34.5336 36.3303 34.9767 36.6302 35.2233C36.761 35.3309 36.9192 35.3833 37.0763 35.3833C37.2794 35.3833 37.4809 35.2958 37.6199 35.1267C40.1883 32.0027 41.6027 28.0512 41.6027 24C41.6027 14.3333 33.7383 6.46875 24.0715 6.46875Z" fill="#007F00"/>
</g>
</g>
</g>
<defs>
<clipPath id="clip0_6007_1494">
<rect width="48" height="48" fill="white" transform="translate(0.0714264)"/>
</clipPath>
</defs>
</svg>
