<svg width="49" height="48" viewBox="0 0 49 48" fill="none" xmlns="http://www.w3.org/2000/svg">
<g id="truck 1" clip-path="url(#clip0_6007_1148)">
<g id="Group">
<g id="Group_2">
<path id="Vector" d="M11.2715 31.6C8.62431 31.6 6.47153 33.7528 6.47153 36.4C6.47153 39.0472 8.62431 41.2 11.2715 41.2C13.9187 41.2 16.0715 39.0472 16.0715 36.4C16.0715 33.7528 13.9187 31.6 11.2715 31.6ZM11.2715 39.5999C9.50668 39.5999 8.07156 38.1647 8.07156 36.4C8.07156 34.6351 9.50678 33.2 11.2715 33.2C13.0363 33.2 14.4715 34.6352 14.4715 36.4C14.4715 38.1647 13.0363 39.5999 11.2715 39.5999Z" fill="#007F00"/>
</g>
</g>
<g id="Group_3">
<g id="Group_4">
<path id="Vector_2" d="M38.4715 31.6C35.8243 31.6 33.6715 33.7528 33.6715 36.4C33.6715 39.0472 35.8243 41.2 38.4715 41.2C41.1187 41.2 43.2715 39.0472 43.2715 36.4C43.2715 33.7528 41.1187 31.6 38.4715 31.6ZM38.4715 39.5999C36.7066 39.5999 35.2715 38.1647 35.2715 36.4C35.2715 34.6351 36.7067 33.2 38.4715 33.2C40.2363 33.2 41.6714 34.6352 41.6714 36.4C41.6714 38.1647 40.2363 39.5999 38.4715 39.5999Z" fill="#007F00"/>
</g>
</g>
<g id="Group_5">
<g id="Group_6">
<path id="Vector_3" d="M47.9442 27.1672L40.7442 15.9672C40.597 15.7384 40.3434 15.6 40.0714 15.6H31.2714C30.829 15.6 30.4715 15.9584 30.4715 16.3999V36.3999C30.4715 36.8423 30.829 37.1999 31.2714 37.1999H34.4714V35.5998H32.0714V17.2H39.6346L46.4714 27.8352V35.6H42.4714V37.2H47.2714C47.7138 37.2 48.0713 36.8424 48.0713 36.4V27.6C48.0714 27.4472 48.0275 27.2959 47.9442 27.1672Z" fill="#007F00"/>
</g>
</g>
<g id="Group_7">
<g id="Group_8">
<path id="Vector_4" d="M35.2715 26.0001V20.4001H41.6715V18.8H34.4715C34.0291 18.8 33.6716 19.1585 33.6716 19.6V26.8C33.6716 27.2424 34.0291 27.6 34.4715 27.6H46.4715V26H35.2715V26.0001Z" fill="#007F00"/>
</g>
</g>
<g id="Group_9">
<g id="Group_10">
<path id="Vector_5" d="M31.2715 10.0001H0.871441C0.429878 10.0001 0.0714722 10.3585 0.0714722 10.8001V36.4001C0.0714722 36.8425 0.429878 37.2001 0.871441 37.2001H7.27147V35.6001H1.6715V11.6001H30.4715V35.6001H15.2714V37.2001H31.2715C31.7139 37.2001 32.0714 36.8425 32.0714 36.4001V10.8001C32.0714 10.3585 31.7139 10.0001 31.2715 10.0001Z" fill="#007F00"/>
</g>
</g>
<g id="Group_11">
<g id="Group_12">
<path id="Vector_6" d="M5.67143 32.4H0.871429V34.0001H5.67143V32.4Z" fill="#007F00"/>
</g>
</g>
<g id="Group_13">
<g id="Group_14">
<path id="Vector_7" d="M30.4714 32.4H16.8714V34.0001H30.4714V32.4Z" fill="#007F00"/>
</g>
</g>
<g id="Group_15">
<g id="Group_16">
<path id="Vector_8" d="M47.2714 32.4H44.0714V34.0001H47.2714V32.4Z" fill="#007F00"/>
</g>
</g>
<g id="Group_17">
<g id="Group_18">
<path id="Vector_9" d="M31.2715 13.2H3.27142V14.8H31.2715V13.2Z" fill="#007F00"/>
</g>
</g>
<g id="Group_19">
<g id="Group_20">
<path id="Vector_10" d="M12.0715 35.6H10.4714V37.2H12.0715V35.6Z" fill="#007F00"/>
</g>
</g>
<g id="Group_21">
<g id="Group_22">
<path id="Vector_11" d="M39.2715 35.6H37.6715V37.2H39.2715V35.6Z" fill="#007F00"/>
</g>
</g>
<g id="Group_23">
<g id="Group_24">
<path id="Vector_12" d="M14.4715 6.80005H3.27142V8.40008H14.4715V6.80005Z" fill="#007F00"/>
</g>
</g>
<g id="Group_25">
<g id="Group_26">
<path id="Vector_13" d="M1.6715 6.80005H0.0714722V8.40008H1.6715V6.80005Z" fill="#007F00"/>
</g>
</g>
</g>
<defs>
<clipPath id="clip0_6007_1148">
<rect width="48" height="48" fill="white" transform="translate(0.0714417)"/>
</clipPath>
</defs>
</svg>
