<svg width="133" height="50" viewBox="0 0 133 50" fill="none" xmlns="http://www.w3.org/2000/svg">
<g id="UMS logo2p 2">
<g id="Group">
<g id="&#208;&#161;&#208;&#187;&#208;&#190;&#208;&#185; 2 2">
<g id="Group_2">
<g id="Group_3">
<path id="Vector" d="M28.8352 29.1282C28.462 28.6951 28.1021 28.2952 27.7756 27.9287C27.4557 28.3152 27.0959 28.7151 26.716 29.1282C24.4369 31.6672 21.3049 35.2058 21.3049 37.958C21.2982 39.6374 21.9912 41.2434 23.2041 42.3963C24.4303 43.5824 26.0696 44.2488 27.7756 44.2422C29.4816 44.2555 31.1276 43.5891 32.3471 42.3963C33.5533 41.2367 34.2397 39.6307 34.2464 37.958C34.253 35.1991 31.1143 31.6872 28.8352 29.1282ZM27.8556 42.8094C26.5494 42.8227 25.2966 42.3229 24.357 41.4166C23.444 40.537 22.9309 39.3241 22.9242 38.058C22.8976 37.7248 23.3041 37.4915 23.6439 37.7048C23.7505 37.7781 23.8105 37.8981 23.8172 38.0313C23.8105 39.0776 24.2304 40.0838 24.9834 40.8169C25.7431 41.5499 26.7627 41.9564 27.8156 41.9498C28.0622 41.9431 28.2621 42.1364 28.2621 42.3829C28.2621 42.4562 28.2488 42.5295 28.2154 42.5962C28.1488 42.7228 28.0088 42.8094 27.8556 42.8094Z" fill="white"/>
</g>
</g>
<g id="Group_4">
<path id="Vector_2" d="M38.9444 36.0521H35.9456C35.1726 36.0521 34.5462 35.4257 34.5462 34.6526C34.5462 33.8796 35.1726 33.2532 35.9456 33.2532H38.9444C39.4776 33.2532 39.9107 32.8467 39.9107 32.3536C39.9107 32.087 39.7908 31.8404 39.5909 31.6738L39.5842 31.6672C37.2118 29.7213 35.8524 26.8691 35.8524 23.8503V20.1851C35.8524 16.34 32.8802 13.0279 28.9351 12.4748L27.7756 12.3149L26.616 12.4748C22.671 13.0279 19.6988 16.34 19.6988 20.1851V23.8503C19.6988 26.8691 18.3327 29.7279 15.9536 31.6805C15.7537 31.8404 15.6404 32.0937 15.6404 32.3469C15.6404 32.84 16.0736 33.2465 16.6067 33.2465H19.6322C20.4052 33.2465 21.0316 33.8729 21.0316 34.646C21.0316 35.419 20.4052 36.0454 19.6322 36.0454H16.6067C14.5275 36.0454 12.8416 34.3861 12.8416 32.3469C12.8416 31.2473 13.328 30.2144 14.181 29.5214C15.907 28.1019 16.8999 26.0361 16.8999 23.8503V20.1851C16.8999 17.6128 17.8595 15.1404 19.6055 13.2079C21.0449 11.6085 22.9375 10.4756 25.0233 9.94251V9.66928C25.0233 8.17654 26.2562 6.95703 27.7756 6.95703C29.295 6.95703 30.5278 8.17654 30.5278 9.66928V9.94251C32.6136 10.4756 34.5062 11.6085 35.9456 13.2079C37.6916 15.1404 38.6512 17.6194 38.6512 20.1851V23.8503C38.6512 26.0294 39.6375 28.0953 41.3568 29.5014C42.2165 30.2011 42.7096 31.2407 42.7096 32.3536C42.7096 34.3927 41.0236 36.0521 38.9444 36.0521Z" fill="white"/>
</g>
<g id="Group_5">
<g id="Group_6">
<path id="Vector_3" d="M42.8962 22.1712C42.1498 22.1712 41.5434 21.5848 41.5434 20.8584C41.5434 17.1732 40.064 13.708 37.3784 11.0957C36.8653 10.6025 36.8453 9.78952 37.3384 9.27639C37.3517 9.26306 37.3651 9.24974 37.3784 9.23641C37.9115 8.72328 38.7578 8.72328 39.291 9.23641C42.4897 12.3418 44.249 16.4668 44.249 20.8584C44.2557 21.5848 43.6492 22.1712 42.8962 22.1712Z" fill="white"/>
</g>
</g>
<g id="Group_7">
<g id="Group_8">
<path id="Vector_4" d="M11.1956 20.8584C11.1956 16.4668 12.9548 12.3418 16.1536 9.23641C16.6867 8.72328 17.533 8.72328 18.0661 9.23641C18.0795 9.24974 18.0928 9.26306 18.1061 9.27639C18.5993 9.78952 18.5793 10.6025 18.0661 11.0957C15.3805 13.708 13.9011 17.1732 13.9011 20.8584C13.9011 21.5848 13.2947 22.1712 12.5483 22.1712C11.7953 22.1712 11.1889 21.5848 11.1956 20.8584Z" fill="white"/>
</g>
</g>
<g id="Group_9">
<path id="Vector_5" d="M57.7036 20.5915H57.6036C57.5103 20.858 57.3837 21.1113 57.2305 21.3512C57.0772 21.5911 56.8773 21.8043 56.6374 21.9909C56.3975 22.1775 56.1109 22.3241 55.7844 22.4307C55.4578 22.5374 55.078 22.5907 54.6582 22.5907C53.5786 22.5907 52.7589 22.2375 52.2058 21.5244C51.6527 20.8114 51.3728 19.7918 51.3728 18.459V11.8616H54.3316V18.1924C54.3316 18.8322 54.4449 19.3253 54.6715 19.6719C54.8981 20.0184 55.2846 20.1916 55.831 20.1916C56.0576 20.1916 56.2842 20.1583 56.5107 20.0917C56.7373 20.025 56.9372 19.9317 57.1105 19.8051C57.2838 19.6785 57.4237 19.5252 57.5303 19.3387C57.637 19.1521 57.6903 18.9321 57.6903 18.6789V11.855H60.6491V22.3508H57.6903V20.5915H57.7036Z" fill="white"/>
<path id="Vector_6" d="M63.4213 22.3511V11.8553H66.3802V14.1344H66.4801C66.5334 13.8412 66.6267 13.5613 66.76 13.2814C66.8933 13.0082 67.0732 12.7683 67.2931 12.5484C67.513 12.3351 67.7729 12.1685 68.0861 12.0352C68.3927 11.9086 68.7526 11.8486 69.1657 11.8486H69.6855V14.6075H68.9458C68.0795 14.6075 67.4397 14.7208 67.0132 14.9474C66.5934 15.174 66.3868 15.5938 66.3868 16.2069V22.3444H63.4213V22.3511Z" fill="white"/>
<path id="Vector_7" d="M75.6564 22.5907C74.8834 22.5907 74.1903 22.4641 73.5905 22.2108C72.9841 21.9576 72.471 21.5911 72.0511 21.1113C71.6313 20.6315 71.3048 20.0517 71.0782 19.372C70.8516 18.6922 70.7383 17.9325 70.7383 17.0929C70.7383 16.2532 70.8516 15.4935 71.0782 14.8138C71.3048 14.1341 71.6313 13.561 72.0511 13.0811C72.471 12.608 72.9841 12.2481 73.5905 11.9882C74.197 11.735 74.8834 11.6084 75.6564 11.6084C76.4294 11.6084 77.1158 11.735 77.7222 11.9882C78.3286 12.2415 78.8418 12.608 79.2616 13.0811C79.6814 13.5543 80.0013 14.1341 80.2279 14.8138C80.4545 15.4935 80.5677 16.2532 80.5677 17.0929C80.5677 17.9325 80.4545 18.6922 80.2279 19.372C80.0013 20.0517 79.6748 20.6315 79.2616 21.1113C78.8418 21.5911 78.3286 21.9576 77.7222 22.2108C77.1158 22.4641 76.4294 22.5907 75.6564 22.5907ZM75.6564 20.2516C76.2428 20.2516 76.696 20.0717 77.0158 19.7118C77.3357 19.352 77.4956 18.8388 77.4956 18.1724V16.0333C77.4956 15.3669 77.3357 14.8538 77.0158 14.4939C76.696 14.1341 76.2428 13.9541 75.6564 13.9541C75.0699 13.9541 74.6168 14.1341 74.2969 14.4939C73.977 14.8538 73.8171 15.3669 73.8171 16.0333V18.1724C73.8171 18.8388 73.977 19.352 74.2969 19.7118C74.6168 20.0717 75.0699 20.2516 75.6564 20.2516Z" fill="white"/>
<path id="Vector_8" d="M82.6736 22.3509V11.8551H85.6325V13.6344H85.7524C85.939 13.0747 86.2589 12.6015 86.712 12.2017C87.1652 11.8085 87.7849 11.6152 88.5713 11.6152C89.291 11.6152 89.9041 11.7952 90.4105 12.155C90.917 12.5149 91.2835 13.0413 91.5101 13.7344H91.5701C91.6634 13.4412 91.8033 13.1679 92.0032 12.9014C92.1965 12.6415 92.4297 12.4216 92.7096 12.235C92.9895 12.0484 93.3027 11.9018 93.6493 11.7818C93.9958 11.6685 94.369 11.6152 94.7688 11.6152C95.7817 11.6152 96.5548 11.9751 97.1012 12.6948C97.641 13.4145 97.9075 14.4408 97.9075 15.7736V22.3509H94.9487V16.0135C94.9487 14.6807 94.4689 14.0143 93.5093 14.0143C93.0695 14.0143 92.6696 14.1409 92.3098 14.3941C91.9499 14.6474 91.77 15.0339 91.77 15.5537V22.3509H88.8112V16.0135C88.8112 14.6807 88.3314 14.0143 87.3718 14.0143C87.1585 14.0143 86.9453 14.0409 86.7387 14.1009C86.5321 14.1609 86.3455 14.2608 86.1789 14.3875C86.0123 14.5207 85.879 14.6873 85.7791 14.8806C85.6791 15.0739 85.6258 15.3004 85.6258 15.547V22.3443H82.6736V22.3509Z" fill="white"/>
<path id="Vector_9" d="M104.925 22.5909C104.125 22.5909 103.412 22.4642 102.786 22.2043C102.159 21.9444 101.626 21.5779 101.2 21.1048C100.766 20.6316 100.44 20.0519 100.22 19.3721C100 18.6924 99.8867 17.9327 99.8867 17.093C99.8867 16.2667 99.9933 15.5203 100.207 14.8406C100.42 14.1675 100.74 13.5878 101.16 13.1146C101.579 12.6348 102.093 12.2616 102.712 12.0017C103.325 11.7419 104.025 11.6152 104.811 11.6152C105.678 11.6152 106.424 11.7618 107.044 12.0551C107.664 12.3483 108.17 12.7415 108.563 13.2346C108.956 13.7277 109.243 14.3008 109.423 14.9406C109.603 15.587 109.69 16.2667 109.69 16.9731V17.8527H102.952V18.0127C102.952 18.6991 103.139 19.2455 103.512 19.6454C103.885 20.0519 104.472 20.2518 105.271 20.2518C105.884 20.2518 106.384 20.1318 106.771 19.8853C107.157 19.6387 107.517 19.3455 107.85 19.0056L109.33 20.8515C108.863 21.398 108.25 21.8245 107.497 22.1377C106.737 22.4376 105.884 22.5909 104.925 22.5909ZM104.865 13.7944C104.265 13.7944 103.799 13.9943 103.452 14.3875C103.112 14.7806 102.946 15.3071 102.946 15.9535V16.1134H106.624V15.9335C106.624 15.2938 106.477 14.7806 106.191 14.3808C105.904 13.9876 105.465 13.7944 104.865 13.7944Z" fill="white"/>
<path id="Vector_10" d="M118.219 20.5916H118.119C118.039 20.8715 117.913 21.1381 117.74 21.3846C117.566 21.6312 117.353 21.8444 117.113 22.0244C116.867 22.2043 116.587 22.3442 116.274 22.4442C115.96 22.5442 115.634 22.5975 115.307 22.5975C113.974 22.5975 112.968 22.131 112.288 21.1914C111.609 20.2517 111.269 18.8923 111.269 17.0997C111.269 15.3137 111.609 13.9543 112.288 13.0213C112.968 12.0883 113.974 11.6219 115.307 11.6219C115.987 11.6219 116.587 11.8084 117.12 12.1816C117.646 12.5548 117.98 13.0346 118.126 13.6211H118.226V7.56348H121.185V22.3576H118.219V20.5916ZM116.28 20.1918C116.84 20.1918 117.3 20.0585 117.666 19.7853C118.033 19.512 118.219 19.1322 118.219 18.6524V15.5536C118.219 15.0738 118.033 14.7006 117.666 14.4207C117.3 14.1475 116.833 14.0142 116.28 14.0142C115.72 14.0142 115.254 14.2142 114.887 14.6007C114.521 14.9938 114.334 15.527 114.334 16.1867V18.006C114.334 18.6724 114.514 19.2055 114.887 19.592C115.254 19.9918 115.72 20.1918 116.28 20.1918Z" fill="white"/>
</g>
<g id="Group_10">
<path id="Vector_11" d="M55.0647 40.25C54.0517 40.25 53.1987 40.0834 52.5057 39.7636C51.8126 39.437 51.1929 38.9772 50.6464 38.3774L52.3857 36.6181C52.7589 37.0313 53.1721 37.3578 53.6252 37.5978C54.0784 37.8377 54.5915 37.9576 55.1646 37.9576C55.751 37.9576 56.1576 37.871 56.3841 37.691C56.6107 37.5111 56.724 37.2712 56.724 36.958C56.724 36.4649 56.3708 36.1717 55.6644 36.0784L54.5249 35.9384C52.1658 35.6452 50.9863 34.5656 50.9863 32.6997C50.9863 32.1932 51.0796 31.7334 51.2795 31.3069C51.4728 30.8871 51.746 30.5272 52.0992 30.2274C52.4524 29.9275 52.8789 29.6942 53.3787 29.5276C53.8785 29.361 54.4382 29.2744 55.0713 29.2744C55.6178 29.2744 56.0976 29.3144 56.5241 29.381C56.9439 29.4543 57.3171 29.561 57.6436 29.7009C57.9702 29.8409 58.27 30.0141 58.5433 30.2207C58.8165 30.4273 59.083 30.6605 59.3496 30.9071L57.6436 32.6531C57.3104 32.3199 56.9372 32.06 56.5174 31.8667C56.0976 31.6735 55.6644 31.5802 55.2246 31.5802C54.7181 31.5802 54.3583 31.6601 54.145 31.8201C53.9318 31.98 53.8252 32.1932 53.8252 32.4598C53.8252 32.7397 53.8985 32.9596 54.0584 33.1129C54.2117 33.2662 54.4982 33.3794 54.9247 33.4461L56.1042 33.606C58.41 33.9126 59.5629 34.9655 59.5629 36.7648C59.5629 37.2712 59.4562 37.7377 59.243 38.1642C59.0297 38.5907 58.7232 38.9639 58.3367 39.2771C57.9435 39.5903 57.4704 39.8369 56.9172 40.0101C56.3575 40.1634 55.7444 40.25 55.0647 40.25Z" fill="white"/>
<path id="Vector_12" d="M65.9603 40.25C65.1606 40.25 64.4475 40.1234 63.8211 39.8635C63.1947 39.6036 62.6616 39.2371 62.2351 38.764C61.8019 38.2908 61.4754 37.711 61.2555 37.0313C61.0356 36.3516 60.9223 35.5919 60.9223 34.7522C60.9223 33.9259 61.0289 33.1795 61.2422 32.4998C61.4554 31.8267 61.7686 31.247 62.1951 30.7738C62.6149 30.294 63.1281 29.9208 63.7478 29.6609C64.3609 29.401 65.0606 29.2744 65.847 29.2744C66.7133 29.2744 67.453 29.421 68.0727 29.7142C68.6925 30.0075 69.199 30.4006 69.5921 30.8938C69.9853 31.3869 70.2718 31.96 70.4518 32.5998C70.6317 33.2462 70.7183 33.9259 70.7183 34.6323V35.5119H63.9811V35.6719C63.9811 36.3582 64.1677 36.9047 64.5408 37.3045C64.914 37.711 65.5004 37.911 66.3001 37.911C66.9132 37.911 67.413 37.791 67.7995 37.5444C68.186 37.2979 68.5459 37.0047 68.8791 36.6648L70.3585 38.5107C69.892 39.0572 69.2789 39.4837 68.5259 39.7969C67.7729 40.0968 66.9199 40.25 65.9603 40.25ZM65.9003 31.4535C65.3005 31.4535 64.834 31.6535 64.4942 32.0466C64.1543 32.4398 63.9877 32.9663 63.9877 33.6127V33.7726H67.6662V33.5927C67.6662 32.9529 67.5196 32.4398 67.2331 32.04C66.9399 31.6468 66.5 31.4535 65.9003 31.4535Z" fill="white"/>
<path id="Vector_13" d="M72.8176 40.0103V29.5145H75.7763V31.7936H75.8763C75.9296 31.5004 76.0229 31.2205 76.1562 30.9406C76.2895 30.6674 76.4694 30.4274 76.6893 30.2075C76.9092 29.9943 77.1691 29.8277 77.4756 29.6944C77.7822 29.5678 78.142 29.5078 78.5552 29.5078H79.075V32.2667H78.3353C77.469 32.2667 76.8226 32.38 76.4028 32.6066C75.9829 32.8332 75.7697 33.253 75.7697 33.8661V40.0036H72.8176V40.0103Z" fill="white"/>
<path id="Vector_14" d="M83.2733 40.0105L79.8347 29.5146H82.7536L84.053 33.753L85.0326 37.5514H85.1926L86.1722 33.753L87.4317 29.5146H90.2306L86.7919 40.0105H83.2733Z" fill="white"/>
<path id="Vector_15" d="M93.2694 28.3951C92.6696 28.3951 92.2297 28.2618 91.9565 27.9819C91.6833 27.7087 91.5433 27.3622 91.5433 26.929V26.4892C91.5433 26.0627 91.6766 25.7162 91.9565 25.4363C92.2297 25.1631 92.6696 25.0298 93.2694 25.0298C93.8691 25.0298 94.3023 25.1697 94.5755 25.4363C94.8488 25.7095 94.9887 26.0627 94.9887 26.4892V26.929C94.9887 27.3555 94.8488 27.7087 94.5755 27.9819C94.3023 28.2552 93.8691 28.3951 93.2694 28.3951ZM91.7899 29.5147H94.7488V40.0105H91.7899V29.5147Z" fill="white"/>
<path id="Vector_16" d="M101.746 40.25C100.96 40.25 100.26 40.1234 99.6468 39.8635C99.0337 39.6036 98.5206 39.2371 98.1074 38.764C97.6943 38.2908 97.3811 37.711 97.1678 37.0313C96.9546 36.3516 96.848 35.5919 96.848 34.7522C96.848 33.9126 96.9546 33.1595 97.1678 32.4865C97.3811 31.8134 97.6943 31.2336 98.1074 30.7538C98.5206 30.274 99.0337 29.9075 99.6468 29.6543C100.26 29.401 100.96 29.2744 101.746 29.2744C102.812 29.2744 103.698 29.5143 104.412 29.9941C105.125 30.4739 105.631 31.147 105.944 32.0133L103.545 33.0529C103.452 32.6531 103.259 32.3132 102.965 32.0333C102.672 31.7534 102.266 31.6135 101.746 31.6135C101.146 31.6135 100.693 31.8134 100.387 32.1999C100.08 32.5931 99.9267 33.1262 99.9267 33.7926V35.7518C99.9267 36.4182 100.08 36.9447 100.387 37.3312C100.693 37.7177 101.146 37.911 101.746 37.911C102.279 37.911 102.699 37.771 103.012 37.4778C103.325 37.1912 103.552 36.8181 103.705 36.3449L106.004 37.3445C105.658 38.3441 105.118 39.0772 104.392 39.5436C103.665 40.0168 102.786 40.25 101.746 40.25Z" fill="white"/>
<path id="Vector_17" d="M112.122 40.25C111.322 40.25 110.609 40.1234 109.983 39.8635C109.356 39.6036 108.823 39.2371 108.397 38.764C107.963 38.2908 107.637 37.711 107.417 37.0313C107.197 36.3516 107.084 35.5919 107.084 34.7522C107.084 33.9259 107.19 33.1795 107.404 32.4998C107.617 31.8267 107.937 31.247 108.357 30.7738C108.776 30.294 109.29 29.9208 109.909 29.6609C110.522 29.401 111.222 29.2744 112.008 29.2744C112.875 29.2744 113.621 29.421 114.241 29.7142C114.861 30.0075 115.367 30.4006 115.76 30.8938C116.154 31.3869 116.44 31.96 116.62 32.5998C116.8 33.2462 116.887 33.9259 116.887 34.6323V35.5119H110.149V35.6719C110.149 36.3582 110.336 36.9047 110.709 37.3045C111.082 37.711 111.669 37.911 112.468 37.911C113.081 37.911 113.581 37.791 113.968 37.5444C114.354 37.2979 114.714 37.0047 115.047 36.6648L116.527 38.5107C116.06 39.0572 115.447 39.4837 114.694 39.7969C113.934 40.0968 113.081 40.25 112.122 40.25ZM112.062 31.4535C111.462 31.4535 110.996 31.6535 110.649 32.0466C110.309 32.4398 110.143 32.9663 110.143 33.6127V33.7726H113.821V33.5927C113.821 32.9529 113.674 32.4398 113.388 32.04C113.101 31.6468 112.662 31.4535 112.062 31.4535Z" fill="white"/>
</g>
</g>
</g>
</g>
</svg>
