<svg width="133" height="50" viewBox="0 0 133 50" fill="none" xmlns="http://www.w3.org/2000/svg">
<g id="UMS logo2p 1">
<g id="Group">
<g id="&#208;&#161;&#208;&#187;&#208;&#190;&#208;&#185; 2 2">
<g id="Group_2">
<g id="Group_3">
<path id="Vector" d="M28.8353 29.1284C28.4621 28.6952 28.1022 28.2954 27.7757 27.9289C27.4558 28.3154 27.0959 28.7152 26.7161 29.1284C24.437 31.6674 21.3049 35.206 21.3049 37.9582C21.2983 39.6375 21.9913 41.2436 23.2042 42.3964C24.4303 43.5826 26.0697 44.249 27.7757 44.2424C29.4817 44.2557 31.1277 43.5893 32.3472 42.3964C33.5534 41.2369 34.2398 39.6309 34.2464 37.9582C34.2531 35.1993 31.1143 31.6874 28.8353 29.1284ZM27.8556 42.8096C26.5495 42.8229 25.2967 42.3231 24.357 41.4168C23.4441 40.5372 22.9309 39.3243 22.9243 38.0582C22.8976 37.725 23.3041 37.4917 23.644 37.705C23.7506 37.7783 23.8106 37.8982 23.8173 38.0315C23.8106 39.0777 24.2304 40.084 24.9835 40.8171C25.7432 41.5501 26.7627 41.9566 27.8157 41.9499C28.0622 41.9433 28.2621 42.1365 28.2621 42.3831C28.2621 42.4564 28.2488 42.5297 28.2155 42.5963C28.1489 42.723 28.0089 42.8096 27.8556 42.8096Z" fill="#001870"/>
</g>
</g>
<g id="Group_4">
<path id="Vector_2" d="M38.9445 36.0523H35.9457C35.1727 36.0523 34.5463 35.4258 34.5463 34.6528C34.5463 33.8798 35.1727 33.2534 35.9457 33.2534H38.9445C39.4776 33.2534 39.9108 32.8469 39.9108 32.3537C39.9108 32.0872 39.7908 31.8406 39.5909 31.674L39.5843 31.6674C37.2119 29.7215 35.8524 26.8693 35.8524 23.8505V20.1853C35.8524 16.3402 32.8803 13.0281 28.9352 12.475L27.7756 12.3151L26.6161 12.475C22.671 13.0281 19.6989 16.3402 19.6989 20.1853V23.8505C19.6989 26.8693 18.3328 29.7281 15.9537 31.6807C15.7538 31.8406 15.6405 32.0938 15.6405 32.3471C15.6405 32.8402 16.0737 33.2467 16.6068 33.2467H19.6322C20.4053 33.2467 21.0317 33.8731 21.0317 34.6462C21.0317 35.4192 20.4053 36.0456 19.6322 36.0456H16.6068C14.5276 36.0456 12.8416 34.3863 12.8416 32.3471C12.8416 31.2475 13.3281 30.2146 14.1811 29.5215C15.9071 28.1021 16.9 26.0363 16.9 23.8505V20.1853C16.9 17.613 17.8596 15.1406 19.6056 13.2081C21.045 11.6087 22.9376 10.4758 25.0234 9.94272V9.66949C25.0234 8.17676 26.2562 6.95724 27.7756 6.95724C29.295 6.95724 30.5279 8.17676 30.5279 9.66949V9.94272C32.6137 10.4758 34.5063 11.6087 35.9457 13.2081C37.6917 15.1406 38.6513 17.6196 38.6513 20.1853V23.8505C38.6513 26.0296 39.6376 28.0954 41.3569 29.5016C42.2165 30.2013 42.7097 31.2409 42.7097 32.3537C42.7097 34.3929 41.0237 36.0523 38.9445 36.0523Z" fill="#007F00"/>
</g>
<g id="Group_5">
<g id="Group_6">
<path id="Vector_3" d="M42.8964 22.1711C42.15 22.1711 41.5436 21.5847 41.5436 20.8583C41.5436 17.1731 40.0642 13.7078 37.3786 11.0956C36.8654 10.6024 36.8454 9.78941 37.3386 9.27629C37.3519 9.26296 37.3652 9.24963 37.3786 9.2363C37.9117 8.72317 38.758 8.72317 39.2912 9.2363C42.4899 12.3417 44.2492 16.4667 44.2492 20.8583C44.2559 21.5847 43.6495 22.1711 42.8964 22.1711Z" fill="#007F00"/>
</g>
</g>
<g id="Group_7">
<g id="Group_8">
<path id="Vector_4" d="M11.1956 20.8583C11.1956 16.4667 12.9549 12.3417 16.1536 9.2363C16.6867 8.72317 17.5331 8.72317 18.0662 9.2363C18.0795 9.24963 18.0928 9.26296 18.1062 9.27629C18.5993 9.78941 18.5793 10.6024 18.0662 11.0956C15.3806 13.7078 13.9012 17.1731 13.9012 20.8583C13.9012 21.5847 13.2948 22.1711 12.5484 22.1711C11.7954 22.1711 11.1889 21.5847 11.1956 20.8583Z" fill="#007F00"/>
</g>
</g>
<g id="Group_9">
<path id="Vector_5" d="M57.7037 20.5918H57.6038C57.5105 20.8583 57.3838 21.1116 57.2306 21.3515C57.0773 21.5914 56.8774 21.8046 56.6375 21.9912C56.3976 22.1778 56.111 22.3244 55.7845 22.431C55.458 22.5377 55.0781 22.591 54.6583 22.591C53.5787 22.591 52.759 22.2378 52.2059 21.5247C51.6528 20.8117 51.3729 19.7921 51.3729 18.4593V11.8619H54.3317V18.1927C54.3317 18.8325 54.445 19.3256 54.6716 19.6721C54.8982 20.0187 55.2847 20.1919 55.8311 20.1919C56.0577 20.1919 56.2843 20.1586 56.5109 20.092C56.7374 20.0253 56.9374 19.932 57.1106 19.8054C57.2839 19.6788 57.4238 19.5255 57.5305 19.3389C57.6371 19.1524 57.6904 18.9324 57.6904 18.6792V11.8553H60.6492V22.3511H57.6904V20.5918H57.7037Z" fill="#001870"/>
<path id="Vector_6" d="M63.4214 22.3511V11.8553H66.3803V14.1344H66.4803C66.5336 13.8412 66.6269 13.5613 66.7602 13.2814C66.8934 13.0082 67.0734 12.7683 67.2933 12.5483C67.5132 12.3351 67.7731 12.1685 68.0863 12.0352C68.3929 11.9086 68.7527 11.8486 69.1659 11.8486H69.6857V14.6075H68.946C68.0797 14.6075 67.4399 14.7208 67.0134 14.9474C66.5936 15.174 66.387 15.5938 66.387 16.2069V22.3444H63.4214V22.3511Z" fill="#001870"/>
<path id="Vector_7" d="M75.6565 22.5909C74.8835 22.5909 74.1904 22.4643 73.5907 22.2111C72.9842 21.9578 72.4711 21.5913 72.0513 21.1115C71.6314 20.6317 71.3049 20.0519 71.0783 19.3722C70.8518 18.6925 70.7385 17.9328 70.7385 17.0931C70.7385 16.2535 70.8518 15.4938 71.0783 14.8141C71.3049 14.1343 71.6314 13.5612 72.0513 13.0814C72.4711 12.6083 72.9842 12.2484 73.5907 11.9885C74.1971 11.7353 74.8835 11.6087 75.6565 11.6087C76.4295 11.6087 77.1159 11.7353 77.7223 11.9885C78.3288 12.2418 78.8419 12.6083 79.2617 13.0814C79.6816 13.5546 80.0014 14.1343 80.228 14.8141C80.4546 15.4938 80.5679 16.2535 80.5679 17.0931C80.5679 17.9328 80.4546 18.6925 80.228 19.3722C80.0014 20.0519 79.6749 20.6317 79.2617 21.1115C78.8419 21.5913 78.3288 21.9578 77.7223 22.2111C77.1159 22.4643 76.4295 22.5909 75.6565 22.5909ZM75.6565 20.2519C76.2429 20.2519 76.6961 20.0719 77.0159 19.7121C77.3358 19.3522 77.4958 18.8391 77.4958 18.1727V16.0336C77.4958 15.3672 77.3358 14.854 77.0159 14.4942C76.6961 14.1343 76.2429 13.9544 75.6565 13.9544C75.0701 13.9544 74.6169 14.1343 74.297 14.4942C73.9772 14.854 73.8172 15.3672 73.8172 16.0336V18.1727C73.8172 18.8391 73.9772 19.3522 74.297 19.7121C74.6169 20.0719 75.0701 20.2519 75.6565 20.2519Z" fill="#001870"/>
<path id="Vector_8" d="M82.6739 22.3511V11.8553H85.6327V13.6346H85.7527C85.9393 13.0748 86.2591 12.6017 86.7123 12.2018C87.1654 11.8087 87.7852 11.6154 88.5715 11.6154C89.2912 11.6154 89.9043 11.7953 90.4108 12.1552C90.9173 12.515 91.2838 13.0415 91.5104 13.7346H91.5703C91.6636 13.4413 91.8036 13.1681 92.0035 12.9016C92.1967 12.6417 92.43 12.4217 92.7099 12.2352C92.9898 12.0486 93.303 11.902 93.6495 11.782C93.996 11.6687 94.3692 11.6154 94.7691 11.6154C95.782 11.6154 96.555 11.9753 97.1015 12.695C97.6412 13.4147 97.9078 14.4409 97.9078 15.7737V22.3511H94.949V16.0137C94.949 14.6808 94.4692 14.0144 93.5096 14.0144C93.0697 14.0144 92.6699 14.1411 92.31 14.3943C91.9502 14.6475 91.7703 15.034 91.7703 15.5538V22.3511H88.8114V16.0137C88.8114 14.6808 88.3316 14.0144 87.372 14.0144C87.1588 14.0144 86.9455 14.0411 86.7389 14.1011C86.5323 14.1611 86.3458 14.261 86.1792 14.3876C86.0126 14.5209 85.8793 14.6875 85.7793 14.8808C85.6794 15.074 85.626 15.3006 85.626 15.5472V22.3445H82.6739V22.3511Z" fill="#001870"/>
<path id="Vector_9" d="M104.925 22.591C104.125 22.591 103.412 22.4644 102.786 22.2045C102.159 21.9446 101.626 21.5781 101.2 21.1049C100.766 20.6318 100.44 20.052 100.22 19.3723C100 18.6926 99.8867 17.9329 99.8867 17.0932C99.8867 16.2669 99.9933 15.5205 100.207 14.8408C100.42 14.1677 100.74 13.5879 101.16 13.1148C101.579 12.635 102.093 12.2618 102.712 12.0019C103.325 11.742 104.025 11.6154 104.812 11.6154C105.678 11.6154 106.424 11.762 107.044 12.0552C107.664 12.3484 108.17 12.7416 108.563 13.2348C108.957 13.7279 109.243 14.301 109.423 14.9407C109.603 15.5871 109.69 16.2669 109.69 16.9732V17.8529H102.952V18.0128C102.952 18.6992 103.139 19.2457 103.512 19.6455C103.885 20.052 104.472 20.2519 105.271 20.2519C105.884 20.2519 106.384 20.132 106.771 19.8854C107.157 19.6388 107.517 19.3456 107.85 19.0058L109.33 20.8517C108.863 21.3981 108.25 21.8246 107.497 22.1378C106.737 22.4377 105.884 22.591 104.925 22.591ZM104.865 13.7945C104.265 13.7945 103.799 13.9944 103.452 14.3876C103.112 14.7808 102.946 15.3073 102.946 15.9537V16.1136H106.624V15.9337C106.624 15.2939 106.478 14.7808 106.191 14.381C105.904 13.9878 105.465 13.7945 104.865 13.7945Z" fill="#001870"/>
<path id="Vector_10" d="M118.22 20.5918H118.12C118.04 20.8717 117.913 21.1382 117.74 21.3848C117.566 21.6314 117.353 21.8446 117.113 22.0245C116.867 22.2045 116.587 22.3444 116.274 22.4444C115.96 22.5443 115.634 22.5976 115.307 22.5976C113.975 22.5976 112.968 22.1312 112.288 21.1915C111.609 20.2519 111.269 18.8925 111.269 17.0998C111.269 15.3139 111.609 13.9544 112.288 13.0215C112.968 12.0885 113.975 11.622 115.307 11.622C115.987 11.622 116.587 11.8086 117.12 12.1818C117.646 12.555 117.98 13.0348 118.126 13.6212H118.226V7.56364H121.185V22.3577H118.22V20.5918ZM116.28 20.1919C116.84 20.1919 117.3 20.0587 117.666 19.7854C118.033 19.5122 118.22 19.1324 118.22 18.6525V15.5538C118.22 15.074 118.033 14.7008 117.666 14.4209C117.3 14.1477 116.833 14.0144 116.28 14.0144C115.721 14.0144 115.254 14.2143 114.887 14.6008C114.521 14.994 114.334 15.5271 114.334 16.1869V18.0061C114.334 18.6725 114.514 19.2057 114.887 19.5922C115.254 19.992 115.721 20.1919 116.28 20.1919Z" fill="#001870"/>
</g>
<g id="Group_10">
<path id="Vector_11" d="M55.0647 40.2506C54.0518 40.2506 53.1988 40.084 52.5057 39.7641C51.8127 39.4376 51.1929 38.9778 50.6465 38.378L52.3858 36.6187C52.759 37.0319 53.1721 37.3584 53.6253 37.5983C54.0784 37.8382 54.5916 37.9582 55.1647 37.9582C55.7511 37.9582 56.1576 37.8715 56.3842 37.6916C56.6108 37.5117 56.7241 37.2718 56.7241 36.9586C56.7241 36.4654 56.3709 36.1722 55.6645 36.0789L54.5249 35.939C52.1659 35.6458 50.9863 34.5662 50.9863 32.7003C50.9863 32.1938 51.0796 31.734 51.2796 31.3075C51.4728 30.8877 51.746 30.5278 52.0992 30.2279C52.4524 29.9281 52.8789 29.6948 53.3787 29.5282C53.8785 29.3616 54.4383 29.275 55.0714 29.275C55.6178 29.275 56.0976 29.315 56.5241 29.3816C56.944 29.4549 57.3171 29.5615 57.6437 29.7015C57.9702 29.8414 58.2701 30.0147 58.5433 30.2213C58.8165 30.4279 59.0831 30.6611 59.3497 30.9077L57.6437 32.6536C57.3105 32.3204 56.9373 32.0605 56.5175 31.8673C56.0976 31.674 55.6645 31.5807 55.2247 31.5807C54.7182 31.5807 54.3583 31.6607 54.1451 31.8206C53.9318 31.9806 53.8252 32.1938 53.8252 32.4604C53.8252 32.7403 53.8985 32.9602 54.0585 33.1135C54.2117 33.2667 54.4983 33.38 54.9248 33.4467L56.1043 33.6066C58.41 33.9131 59.5629 34.966 59.5629 36.7653C59.5629 37.2718 59.4563 37.7383 59.243 38.1648C59.0298 38.5913 58.7233 38.9644 58.3367 39.2777C57.9436 39.5909 57.4704 39.8374 56.9173 40.0107C56.3575 40.164 55.7444 40.2506 55.0647 40.2506Z" fill="#007F00"/>
<path id="Vector_12" d="M65.9604 40.2506C65.1607 40.2506 64.4476 40.124 63.8212 39.8641C63.1948 39.6042 62.6617 39.2377 62.2352 38.7645C61.8021 38.2914 61.4755 37.7116 61.2556 37.0319C61.0357 36.3522 60.9224 35.5925 60.9224 34.7528C60.9224 33.9265 61.029 33.1801 61.2423 32.5004C61.4555 31.8273 61.7687 31.2475 62.1952 30.7744C62.6151 30.2946 63.1282 29.9214 63.7479 29.6615C64.361 29.4016 65.0607 29.275 65.8471 29.275C66.7134 29.275 67.4531 29.4216 68.0728 29.7148C68.6926 30.008 69.199 30.4012 69.5922 30.8943C69.9854 31.3875 70.2719 31.9606 70.4518 32.6003C70.6318 33.2467 70.7184 33.9265 70.7184 34.6328V35.5125H63.9812V35.6724C63.9812 36.3588 64.1678 36.9053 64.5409 37.3051C64.9141 37.7116 65.5005 37.9115 66.3002 37.9115C66.9133 37.9115 67.4131 37.7916 67.7996 37.545C68.1861 37.2984 68.546 37.0052 68.8792 36.6654L70.3586 38.5113C69.8921 39.0577 69.279 39.4842 68.526 39.7974C67.773 40.0973 66.92 40.2506 65.9604 40.2506ZM65.9004 31.4541C65.3006 31.4541 64.8342 31.654 64.4943 32.0472C64.1544 32.4404 63.9878 32.9668 63.9878 33.6133V33.7732H67.6663V33.5933C67.6663 32.9535 67.5197 32.4404 67.2332 32.0405C66.94 31.6474 66.5001 31.4541 65.9004 31.4541Z" fill="#007F00"/>
<path id="Vector_13" d="M72.8177 40.0107V29.5149H75.7764V31.794H75.8764C75.9297 31.5008 76.023 31.2209 76.1563 30.941C76.2895 30.6678 76.4695 30.4279 76.6894 30.208C76.9093 29.9947 77.1691 29.8281 77.4757 29.6948C77.7822 29.5682 78.1421 29.5082 78.5552 29.5082H79.075V32.2671H78.3353C77.469 32.2671 76.8226 32.3804 76.4028 32.607C75.983 32.8336 75.7698 33.2534 75.7698 33.8665V40.004H72.8177V40.0107Z" fill="#007F00"/>
<path id="Vector_14" d="M83.2733 40.0107L79.8347 29.5149H82.7536L84.053 33.7532L85.0326 37.5517H85.1926L86.1722 33.7532L87.4317 29.5149H90.2306L86.7919 40.0107H83.2733Z" fill="#007F00"/>
<path id="Vector_15" d="M93.2694 28.3953C92.6696 28.3953 92.2298 28.262 91.9565 27.9821C91.6833 27.7089 91.5433 27.3624 91.5433 26.9292V26.4894C91.5433 26.0629 91.6766 25.7164 91.9565 25.4365C92.2298 25.1632 92.6696 25.03 93.2694 25.03C93.8692 25.03 94.3024 25.1699 94.5756 25.4365C94.8489 25.7097 94.9888 26.0629 94.9888 26.4894V26.9292C94.9888 27.3557 94.8489 27.7089 94.5756 27.9821C94.3024 28.2554 93.8692 28.3953 93.2694 28.3953ZM91.7899 29.5149H94.7489V40.0107H91.7899V29.5149Z" fill="#007F00"/>
<path id="Vector_16" d="M101.746 40.2506C100.96 40.2506 100.26 40.124 99.6469 39.8641C99.0338 39.6042 98.5207 39.2377 98.1075 38.7645C97.6944 38.2914 97.3812 37.7116 97.1679 37.0319C96.9547 36.3522 96.8481 35.5925 96.8481 34.7528C96.8481 33.9131 96.9547 33.1601 97.1679 32.487C97.3812 31.814 97.6944 31.2342 98.1075 30.7544C98.5207 30.2746 99.0338 29.9081 99.6469 29.6548C100.26 29.4016 100.96 29.275 101.746 29.275C102.812 29.275 103.699 29.5149 104.412 29.9947C105.125 30.4745 105.631 31.1476 105.944 32.0139L103.545 33.0535C103.452 32.6536 103.259 32.3138 102.966 32.0339C102.672 31.754 102.266 31.6141 101.746 31.6141C101.146 31.6141 100.693 31.814 100.387 32.2005C100.08 32.5937 99.9268 33.1268 99.9268 33.7932V35.7524C99.9268 36.4188 100.08 36.9453 100.387 37.3318C100.693 37.7183 101.146 37.9115 101.746 37.9115C102.279 37.9115 102.699 37.7716 103.012 37.4784C103.325 37.1918 103.552 36.8186 103.705 36.3455L106.004 37.3451C105.658 38.3447 105.118 39.0777 104.392 39.5442C103.665 40.0174 102.786 40.2506 101.746 40.2506Z" fill="#007F00"/>
<path id="Vector_17" d="M112.122 40.2506C111.322 40.2506 110.609 40.124 109.983 39.8641C109.356 39.6042 108.823 39.2377 108.397 38.7645C107.963 38.2914 107.637 37.7116 107.417 37.0319C107.197 36.3522 107.084 35.5925 107.084 34.7528C107.084 33.9265 107.19 33.1801 107.404 32.5004C107.617 31.8273 107.937 31.2475 108.357 30.7744C108.776 30.2946 109.29 29.9214 109.909 29.6615C110.522 29.4016 111.222 29.275 112.009 29.275C112.875 29.275 113.621 29.4216 114.241 29.7148C114.861 30.008 115.367 30.4012 115.76 30.8943C116.154 31.3875 116.44 31.9606 116.62 32.6003C116.8 33.2467 116.887 33.9265 116.887 34.6328V35.5125H110.149V35.6724C110.149 36.3588 110.336 36.9053 110.709 37.3051C111.082 37.7116 111.669 37.9115 112.468 37.9115C113.081 37.9115 113.581 37.7916 113.968 37.545C114.354 37.2984 114.714 37.0052 115.047 36.6654L116.527 38.5113C116.06 39.0577 115.447 39.4842 114.694 39.7974C113.934 40.0973 113.081 40.2506 112.122 40.2506ZM112.062 31.4541C111.462 31.4541 110.996 31.654 110.649 32.0472C110.309 32.4404 110.143 32.9668 110.143 33.6133V33.7732H113.821V33.5933C113.821 32.9535 113.675 32.4404 113.388 32.0405C113.101 31.6474 112.662 31.4541 112.062 31.4541Z" fill="#007F00"/>
</g>
</g>
</g>
</g>
</svg>
