<svg width="49" height="48" viewBox="0 0 49 48" fill="none" xmlns="http://www.w3.org/2000/svg">
<g id="warranty 1">
<path id="Vector" d="M46.1169 18.8107L36.0714 14.5057V6C36.0714 5.8011 35.9924 5.61037 35.8517 5.46975L32.1017 1.71975C31.9611 1.57909 31.7703 1.50004 31.5714 1.5H3.82144C3.2247 1.5 2.65241 1.73705 2.23045 2.15901C1.80849 2.58097 1.57144 3.15326 1.57144 3.75V44.25C1.57144 44.8467 1.80849 45.419 2.23045 45.841C2.65241 46.2629 3.2247 46.5 3.82144 46.5H33.8214C34.4182 46.5 34.9905 46.2629 35.4124 45.841C35.8344 45.419 36.0714 44.8467 36.0714 44.25V42.3855L39.9759 39.6C42.0146 38.1408 43.6762 36.2169 44.8231 33.9877C45.9701 31.7585 46.5694 29.288 46.5714 26.781V19.5C46.5714 19.3532 46.5284 19.2097 46.4476 19.0872C46.3668 18.9647 46.2518 18.8686 46.1169 18.8107ZM34.5714 6.3105V6.75H30.8214V3H31.2609L34.5714 6.3105ZM33.8214 45H3.82144C3.62253 45 3.43176 44.921 3.29111 44.7803C3.15046 44.6397 3.07144 44.4489 3.07144 44.25V3.75C3.07144 3.55109 3.15046 3.36032 3.29111 3.21967C3.43176 3.07902 3.62253 3 3.82144 3H29.3214V7.5C29.3214 7.69891 29.4005 7.88968 29.5411 8.03033C29.6818 8.17098 29.8725 8.25 30.0714 8.25H34.5714V14.5057L24.5259 18.8107C24.3911 18.8686 24.2761 18.9647 24.1953 19.0872C24.1145 19.2097 24.0715 19.3532 24.0714 19.5V26.781C24.0735 29.288 24.6728 31.7585 25.8198 33.9877C26.9667 36.2169 28.6283 38.1408 30.6669 39.6L34.5714 42.3855V44.25C34.5714 44.4489 34.4924 44.6397 34.3518 44.7803C34.2111 44.921 34.0204 45 33.8214 45ZM45.0714 26.781C45.0692 29.0488 44.5268 31.2835 43.4892 33.2999C42.4515 35.3164 40.9485 37.0567 39.1044 38.3767L35.3214 41.0783L31.5384 38.3783C29.6942 37.0581 28.191 35.3175 27.1534 33.3008C26.1157 31.284 25.5734 29.0491 25.5714 26.781V19.9943L35.3214 15.816L45.0714 19.9943V26.781Z" fill="#007F00"/>
<path id="Vector_2" d="M35.0424 18.0532L27.5424 21.0532C27.4033 21.1089 27.284 21.2051 27.2001 21.3293C27.1161 21.4535 27.0713 21.6 27.0714 21.7499V26.4824C27.067 28.3953 27.4951 30.2844 28.3237 32.0086C29.1523 33.7327 30.36 35.2471 31.8564 36.4387L34.8527 38.8387C34.9857 38.9452 35.151 39.0032 35.3214 39.0032C35.4918 39.0032 35.6572 38.9452 35.7902 38.8387L38.7864 36.4387C40.2829 35.2471 41.4906 33.7327 42.3192 32.0086C43.1478 30.2844 43.5759 28.3953 43.5714 26.4824V21.7499C43.5715 21.6 43.5267 21.4535 43.4428 21.3293C43.3588 21.2051 43.2396 21.1089 43.1004 21.0532L35.6004 18.0532C35.4213 17.9819 35.2216 17.9819 35.0424 18.0532ZM42.0714 22.2577V26.4824C42.0755 28.1701 41.6979 29.8369 40.9668 31.358C40.2357 32.8792 39.1701 34.2153 37.8497 35.2664L35.3214 37.2899L32.7932 35.2649C31.473 34.214 30.4075 32.8781 29.6764 31.3572C28.9453 29.8364 28.5676 28.1699 28.5714 26.4824V22.2577L35.3214 19.5577L42.0714 22.2577Z" fill="#007F00"/>
<path id="Vector_3" d="M5.32144 15H26.3214C26.5204 15 26.7111 14.921 26.8518 14.7803C26.9924 14.6397 27.0714 14.4489 27.0714 14.25V5.25C27.0714 5.05109 26.9924 4.86032 26.8518 4.71967C26.7111 4.57902 26.5204 4.5 26.3214 4.5H5.32144C5.12253 4.5 4.93176 4.57902 4.79111 4.71967C4.65046 4.86032 4.57144 5.05109 4.57144 5.25V14.25C4.57144 14.4489 4.65046 14.6397 4.79111 14.7803C4.93176 14.921 5.12253 15 5.32144 15ZM6.07144 6H25.5714V13.5H6.07144V6Z" fill="#007F00"/>
<path id="Vector_4" d="M21.8214 33H5.32144C5.12253 33 4.93176 33.079 4.79111 33.2197C4.65046 33.3603 4.57144 33.5511 4.57144 33.75V42.75C4.57144 42.9489 4.65046 43.1397 4.79111 43.2803C4.93176 43.421 5.12253 43.5 5.32144 43.5H21.8214C22.0204 43.5 22.2111 43.421 22.3518 43.2803C22.4924 43.1397 22.5714 42.9489 22.5714 42.75V33.75C22.5714 33.5511 22.4924 33.3603 22.3518 33.2197C22.2111 33.079 22.0204 33 21.8214 33ZM21.0714 42H6.07144V34.5H21.0714V42Z" fill="#007F00"/>
<path id="Vector_5" d="M4.57144 18.75H22.5714V20.25H4.57144V18.75Z" fill="#007F00"/>
<path id="Vector_6" d="M4.57144 23.25H22.5714V24.75H4.57144V23.25Z" fill="#007F00"/>
<path id="Vector_7" d="M4.57144 27.75H22.5714V29.25H4.57144V27.75Z" fill="#007F00"/>
</g>
</svg>
